<svg width="86" height="65" viewBox="0 0 86 65" fill="none" xmlns="http://www.w3.org/2000/svg">
<path d="M50.3833 27.3847C48.7047 26.7808 46.6395 27.2132 44.2439 28.6681C44.0489 28.5683 43.8538 28.4615 43.6585 28.3476C43.7991 28.2177 43.9347 28.0863 44.0653 27.9533C44.5078 27.8371 47.1157 27.0708 48.2527 24.8595C48.9705 23.4631 48.9405 21.7927 48.1628 19.8949C48.1474 19.8572 48.1211 19.825 48.0873 19.8024C48.0535 19.7797 48.0137 19.7676 47.973 19.7676C47.8855 19.7676 45.8145 19.7906 44.4789 21.4736C43.3696 22.8714 43.1193 24.9677 43.7333 27.7047C43.5631 27.8762 43.3843 28.045 43.1971 28.2111C43.1839 28.2203 43.1718 28.2309 43.1611 28.2428C43.0501 28.3402 42.936 28.4364 42.8188 28.5314C42.152 27.3873 41.6824 26.1392 41.4297 24.8392C43.3335 23.1115 45.2352 20.5398 43.9686 17.8219C44.3677 17.612 44.7342 17.3451 45.0563 17.0295C45.4967 16.5996 45.8704 16.1063 46.1651 15.5659C46.1889 15.5215 46.2026 15.4723 46.2052 15.422C46.2079 15.3716 46.1994 15.3213 46.1804 15.2746C46.1614 15.2279 46.1323 15.1859 46.0953 15.1517C46.0583 15.1175 46.0141 15.0919 45.9661 15.0766C44.4092 14.5776 42.9392 15.0517 42.2354 15.3576C42.2122 15.3148 42.1744 15.2819 42.1289 15.2648C42.0834 15.2478 42.0332 15.2477 41.9876 15.2647C41.9306 15.2852 40.5863 15.7814 40.1233 17.0394C40.1033 17.0935 40.0718 17.1426 40.0309 17.1834C39.9901 17.2242 39.9409 17.2557 39.8867 17.2757C39.4876 17.4242 38.6096 18.1644 38.0384 19.1477C37.8956 16.6426 38.3266 14.3147 38.5943 13.1583C38.9417 12.6271 39.4898 12.2442 40.138 11.9711C40.3841 11.9682 41.0376 12.1384 41.9431 12.8221C42.3335 13.1239 42.8138 13.2861 43.3072 13.2827C44.4263 13.2827 45.5442 12.524 46.3014 12.01C46.5908 11.8136 46.9189 11.5908 47.0269 11.5794C47.0637 11.5754 47.0988 11.5614 47.1284 11.5391C47.1579 11.5167 47.1809 11.4868 47.1948 11.4524C47.2087 11.4181 47.2131 11.3806 47.2074 11.3439C47.2017 11.3073 47.1861 11.2729 47.1624 11.2444C46.206 10.094 45.1354 9.50172 43.9806 9.48388C43.1447 9.4702 42.2808 9.75854 41.4144 10.3384C40.8874 10.6964 40.4056 11.1168 39.9795 11.5904C39.3597 11.8518 38.8688 12.1879 38.5067 12.5987C38.4345 12.2897 38.3564 11.9846 38.2722 11.6834C38.4466 11.1419 38.6587 10.6133 38.9068 10.1014C41.6885 9.8818 43.6086 9.02655 44.6137 7.55737C45.8345 5.77319 45.2349 3.76568 45.2088 3.6814C45.1967 3.64254 45.1734 3.60814 45.1418 3.58258C45.1101 3.55701 45.0716 3.54144 45.0311 3.53784C42.9931 3.35327 41.393 3.81634 40.2741 4.91296C38.4686 6.68258 38.5394 9.47253 38.5598 9.87585C38.385 10.2323 38.2214 10.6098 38.0725 11.0083C37.9034 10.4659 37.7179 9.93922 37.521 9.43069C37.5615 9.36345 37.5882 9.28888 37.5998 9.21126C38.0232 6.34331 37.4829 4.15499 35.9939 2.70707C34.8066 1.55248 33.356 1.25313 32.9396 1.18888C32.8526 1.17509 32.7634 1.19125 32.6868 1.23471C32.6102 1.27818 32.5506 1.34637 32.5177 1.42813C31.7881 3.2292 31.8948 4.94447 32.8154 6.44927C31.9093 6.22676 30.1204 6.04971 28.6826 7.52121C28.6469 7.55764 28.6193 7.60117 28.6015 7.64896C28.5838 7.69676 28.5762 7.74775 28.5795 7.79864C28.5827 7.84952 28.5966 7.89916 28.6202 7.94434C28.6439 7.98951 28.6768 8.0292 28.7167 8.06084C28.961 8.25368 29.4267 8.70916 29.8019 9.59311C30.2838 10.7286 31.0002 11.4662 31.9311 11.7856C32.2955 11.9084 32.6777 11.9696 33.0621 11.9668C34.0105 11.9668 35.0932 11.6302 36.2962 10.9597C36.2978 10.9588 36.2992 10.9576 36.3008 10.9567C36.7052 11.4645 36.9994 12.0511 37.1646 12.6789C37.3298 13.3067 37.3625 13.962 37.2605 14.6032C37.0829 15.7008 36.9834 16.8096 36.9627 17.9213C36.8169 17.8001 36.6706 17.6839 36.5239 17.5727C36.5158 17.5654 36.507 17.5587 36.4978 17.5528C36.1304 17.2754 35.7478 17.0186 35.352 16.7836C35.1401 16.4219 33.6734 14.061 31.2007 13.5686C29.6639 13.2627 28.0713 13.7503 26.4667 15.0178C26.4348 15.043 26.4111 15.0772 26.3986 15.1159C26.3862 15.1546 26.3855 15.1962 26.3968 15.2353C26.4212 15.3205 27.0188 17.33 29.0184 18.1566C29.5909 18.3889 30.2038 18.5055 30.8217 18.4995C31.1227 18.4983 31.4232 18.4749 31.7207 18.4296C31.2323 18.648 30.7813 18.942 30.3842 19.3007C29.2262 20.3573 28.6731 21.9265 28.7403 23.9648C28.7416 24.0056 28.7551 24.0451 28.779 24.0781C28.8029 24.1112 28.8361 24.1364 28.8745 24.1505C29.3849 24.3187 29.9193 24.4026 30.4568 24.3992C31.2852 24.4075 32.0998 24.187 32.811 23.762C34.3379 22.8364 35.3024 20.9676 35.6793 18.2076C35.8959 18.1182 36.1192 18.0339 36.3492 17.9546C36.5548 18.1132 36.7591 18.2816 36.9621 18.4599C36.9809 19.9373 37.1734 21.4916 37.6841 22.9254C38.2519 24.5194 38.6897 25.9374 38.9665 27.3619C38.1465 26.54 37.0391 26.038 36.6381 25.9913C36.5807 25.9848 36.5255 25.9659 36.4761 25.936C36.4268 25.9061 36.3845 25.8658 36.3521 25.818C35.6035 24.706 34.1796 24.5435 34.1194 24.5372C34.0744 24.5316 34.0289 24.5415 33.9903 24.5652C33.9517 24.5889 33.9223 24.6249 33.9069 24.6675C33.1686 24.5445 31.6203 24.4351 30.2103 25.2998C30.1672 25.3261 30.1304 25.3614 30.1026 25.4035C30.0747 25.4455 30.0565 25.4931 30.0491 25.543C30.0418 25.5929 30.0455 25.6438 30.06 25.6921C30.0746 25.7404 30.0995 25.7849 30.1332 25.8224C30.5338 26.2682 31.8919 27.6117 33.6889 27.6116C33.7388 27.6116 33.7892 27.6102 33.8399 27.6081C33.8593 27.6364 33.8856 27.6593 33.9163 27.6748C33.9289 27.681 35.1835 28.2852 36.2452 27.2276C36.3008 27.1715 36.3716 27.133 36.4488 27.1169C36.5261 27.1008 36.6064 27.1077 36.6797 27.1369C37.1461 27.3252 38.3733 27.8214 39.2195 29.0947C39.3464 30.4699 39.331 31.8546 39.1735 33.2267C39.1586 33.3672 39.2 33.5079 39.2888 33.6179C39.3776 33.7278 39.5064 33.798 39.6469 33.813C39.7874 33.8279 39.9281 33.7865 40.038 33.6977C40.148 33.609 40.2181 33.4802 40.2331 33.3397C40.3396 32.4007 40.3859 31.4559 40.3718 30.5111C41.4441 30.0287 42.4425 29.3965 43.3371 28.6334C43.593 28.7865 43.8487 28.9276 44.104 29.0565C44.3355 29.4106 45.9011 31.669 48.3804 32.0421C48.6074 32.0763 48.8366 32.0935 49.0661 32.0935C50.3954 32.0935 51.7349 31.5154 53.0572 30.369C53.088 30.3423 53.1101 30.307 53.1208 30.2677C53.1314 30.2283 53.1301 30.1867 53.117 30.1481C53.0886 30.0654 52.4047 28.1115 50.3833 27.3847ZM44.7966 21.7325C45.8203 20.4392 47.3722 20.2218 47.8373 20.185C48.514 21.9095 48.5319 23.4176 47.8892 24.6694C47.1173 26.1729 45.556 26.9723 44.6353 27.33C46.5542 25.0756 47.2166 22.5819 47.44 21.2985C47.449 21.2451 47.4365 21.1902 47.4052 21.146C47.3739 21.1018 47.3263 21.0718 47.273 21.0625C47.2196 21.0532 47.1647 21.0654 47.1203 21.0964C47.0759 21.1275 47.0456 21.1748 47.036 21.2282C46.8104 22.5235 46.1229 25.0935 44.0749 27.3449C43.5645 24.8706 43.8067 22.9833 44.7966 21.7322V21.7325ZM46.2372 11.0269C45.135 10.9039 44.0238 10.8821 42.9177 10.9617C42.2231 11.0081 41.5342 11.1187 40.86 11.2922C41.5609 10.6649 42.7001 9.87407 43.9739 9.89396C44.9309 9.90873 45.834 10.3787 46.6604 11.2918C46.5088 11.3751 46.3207 11.5012 46.0707 11.671C45.028 12.3787 43.4525 13.4483 42.19 12.4951C41.7821 12.177 41.3321 11.9171 40.8528 11.7226C43.1611 11.0634 46.1429 11.4287 46.1853 11.434C46.2389 11.4401 46.2927 11.4249 46.3351 11.3916C46.3775 11.3583 46.4052 11.3097 46.412 11.2562C46.4188 11.2027 46.4043 11.1487 46.3717 11.1059C46.339 11.063 46.2907 11.0347 46.2373 11.0272L46.2372 11.0269ZM40.561 5.20533C41.4408 4.34298 42.6582 3.90814 44.1884 3.90814C44.4026 3.90814 44.6231 3.91669 44.8498 3.93378C44.9541 4.39179 45.2121 5.95872 44.2718 7.3298C43.369 8.64565 41.6385 9.43206 39.1257 9.67057C39.7317 8.53975 40.5138 7.51255 41.4427 6.62748C43.016 5.12973 44.5058 4.5067 44.5208 4.50061C44.5711 4.47996 44.6111 4.44015 44.6321 4.38996C44.6531 4.33977 44.6532 4.28331 44.6326 4.23299C44.6119 4.18267 44.5721 4.14262 44.5219 4.12164C44.4717 4.10067 44.4153 4.10049 44.365 4.12115C44.3019 4.14706 42.8007 4.77269 41.1726 6.31815C40.3174 7.13049 39.5814 8.05964 38.9864 9.07803C39.0593 8.07957 39.3667 6.37578 40.561 5.20533ZM29.1797 17.7797C27.6404 17.1458 26.9985 15.6916 26.8351 15.2509C28.3009 14.1277 29.741 13.6968 31.118 13.9702C32.7554 14.2952 33.9471 15.5526 34.5572 16.3501C33.3157 15.733 31.9811 15.3242 30.607 15.1401C28.7144 14.8872 27.3986 15.1323 27.3435 15.1428C27.317 15.1479 27.2918 15.1581 27.2693 15.1729C27.2468 15.1877 27.2275 15.2068 27.2124 15.2291C27.1972 15.2514 27.1867 15.2764 27.1812 15.3028C27.1758 15.3292 27.1756 15.3564 27.1807 15.3828C27.1858 15.4093 27.196 15.4345 27.2108 15.457C27.2256 15.4795 27.2447 15.4988 27.267 15.514C27.2893 15.5291 27.3143 15.5397 27.3407 15.5451C27.3671 15.5505 27.3943 15.5507 27.4207 15.5456C27.4636 15.5374 31.042 14.8901 34.7715 16.9244C32.5365 18.0995 30.6564 18.3878 29.1797 17.7797ZM32.6026 23.4086C31.168 24.2808 29.6016 23.9357 29.1465 23.8062C29.1133 21.9654 29.6217 20.5527 30.6586 19.6056C31.8959 18.4755 33.6225 18.2575 34.6348 18.2372C33.2552 18.9435 32.0163 19.896 30.9792 21.0478C29.8737 22.2761 29.3819 23.2908 29.3614 23.3334C29.3498 23.3577 29.3431 23.3841 29.3416 23.411C29.3401 23.4379 29.344 23.4648 29.3529 23.4902C29.3619 23.5156 29.3758 23.539 29.3937 23.5591C29.4117 23.5791 29.4335 23.5954 29.4578 23.6071C29.4821 23.6187 29.5084 23.6255 29.5353 23.6269C29.5623 23.6284 29.5892 23.6245 29.6146 23.6156C29.64 23.6066 29.6634 23.5928 29.6835 23.5748C29.7035 23.5568 29.7198 23.535 29.7315 23.5107C29.7489 23.4744 31.3618 20.1864 35.2373 18.4003C34.8565 20.8923 33.9713 22.5767 32.6026 23.4086ZM35.464 17.853C34.8585 17.7988 34.2488 17.8127 33.6465 17.8945C34.1758 17.6834 34.6916 17.4395 35.1907 17.1644C35.4447 17.3166 35.6984 17.4821 35.9518 17.661C35.7858 17.7222 35.6232 17.7862 35.4641 17.853H35.464ZM43.8529 20.5862C43.563 21.8015 42.7208 23.0676 41.3487 24.355C41.0296 22.1239 41.4571 20.1538 42.021 18.6656C42.3509 18.6036 42.6621 18.4662 42.9302 18.2642C42.9596 18.239 42.9813 18.206 42.9928 18.169C43.1981 18.1269 43.3995 18.0675 43.5948 17.9913C43.9783 18.8004 44.0695 19.7174 43.8531 20.5862H43.8529ZM40.8987 24.0812C40.1824 23.008 38.9541 20.6057 40.3737 18.3253C40.4402 18.329 40.5047 18.3488 40.5618 18.383C40.8657 18.573 41.2133 18.6818 41.5712 18.6991C41.0484 20.1421 40.6634 21.9942 40.8988 24.0812H40.8987ZM42.0608 15.8963C42.366 15.734 44.0227 14.9241 45.7642 15.4437C44.6674 17.4292 43.1028 17.7629 42.5815 17.8183L42.1278 17.6658L43.3378 16.5407C43.3708 16.5101 43.3927 16.4694 43.4002 16.425C43.4078 16.3805 43.4005 16.3349 43.3795 16.2951C43.3585 16.2552 43.3249 16.2234 43.284 16.2045C43.2431 16.1856 43.1972 16.1807 43.1532 16.1905L41.7444 16.509L42.0608 15.8963ZM40.0292 17.6599C40.1388 17.6194 40.2384 17.5555 40.321 17.4728C40.4036 17.3901 40.4673 17.2905 40.5077 17.1808C40.7281 16.5818 41.2013 16.1767 41.5792 15.9345L41.1778 16.7119C41.1599 16.7465 41.1523 16.7856 41.1559 16.8245C41.1594 16.8633 41.174 16.9004 41.1979 16.9312C41.2218 16.9621 41.254 16.9855 41.2907 16.9987C41.3274 17.0119 41.3671 17.0144 41.4052 17.0058L42.5015 16.7579L41.596 17.5998C41.57 17.624 41.5507 17.6545 41.54 17.6884C41.5293 17.7224 41.5277 17.7585 41.5352 17.7932C41.5426 17.828 41.559 17.8602 41.5827 17.8867C41.6064 17.9132 41.6366 17.9331 41.6703 17.9444L42.3075 18.1585C41.9638 18.305 41.4058 18.4134 40.7738 18.0317C40.6377 17.9488 40.4803 17.9077 40.321 17.9136C40.1618 17.9195 40.0078 17.9721 39.8783 18.065C39.1331 18.6031 38.5313 19.3157 38.1254 20.1404C38.118 20.0793 38.1101 20.0182 38.1035 19.9572C38.5528 18.7634 39.6656 17.7955 40.0294 17.6601L40.0292 17.6599ZM32.8916 1.59616C33.7919 1.73883 37.9509 2.73093 37.2461 8.74949C35.5741 4.76045 33.3189 2.04904 33.2889 2.01336C33.2717 1.9923 33.2505 1.97488 33.2265 1.96209C33.2025 1.94931 33.1762 1.94142 33.1492 1.93888C33.1221 1.93635 33.0948 1.93922 33.0689 1.94734C33.0429 1.95545 33.0188 1.96864 32.998 1.98613C32.9772 2.00363 32.9601 2.02509 32.9477 2.04927C32.9352 2.07344 32.9277 2.09984 32.9256 2.12694C32.9235 2.15404 32.9267 2.18129 32.9352 2.20712C32.9437 2.23294 32.9573 2.25682 32.9751 2.27736C33.0055 2.31366 35.375 5.16425 37.0316 9.30628C37.0006 9.30976 36.9692 9.30521 36.9405 9.29309C35.922 8.85647 30.9438 6.43491 32.8916 1.59616ZM29.994 8.18881C30.0208 8.1927 32.7043 8.59001 34.8761 9.76299C35.3027 9.9933 35.6904 10.2891 36.0253 10.6397C34.4713 11.4909 33.1028 11.754 32.0642 11.3977C31.248 11.1174 30.6139 10.4566 30.1794 9.43288C29.788 8.51078 29.2952 8.00533 29.0117 7.77175C30.6953 6.09011 32.8423 6.85122 33.1884 6.98999C33.2883 7.11946 33.3935 7.24743 33.5066 7.37321C34.2095 8.15743 35.0457 8.73931 35.7134 9.12813C35.8682 9.44092 35.9873 9.77013 36.0684 10.1096C35.7659 9.83417 35.4311 9.59661 35.0712 9.40212C32.8334 8.19359 30.165 7.79902 30.0528 7.78289C30.0259 7.77863 29.9985 7.77974 29.9721 7.78617C29.9457 7.7926 29.9208 7.80421 29.8989 7.82033C29.8771 7.83646 29.8586 7.85677 29.8446 7.88009C29.8307 7.90341 29.8215 7.92927 29.8176 7.95617C29.8137 7.98307 29.8152 8.01047 29.822 8.03679C29.8289 8.0631 29.8408 8.0878 29.8573 8.10944C29.8737 8.13109 29.8943 8.14925 29.9178 8.16288C29.9413 8.1765 29.9673 8.18532 29.9942 8.18881H29.994ZM36.5457 10.608C36.554 10.5591 36.5551 10.5091 36.5489 10.4598C36.5025 10.1127 36.4175 9.77193 36.2955 9.44375C36.5046 9.54889 36.6724 9.62435 36.7791 9.67009C36.9066 9.72518 37.0495 9.73322 37.1824 9.69278C37.4244 10.3274 37.6483 10.9898 37.8435 11.6752C37.7457 11.9887 37.6579 12.3141 37.5802 12.6515C37.3949 11.9007 37.0412 11.2018 36.5457 10.608ZM30.4932 25.6083C32.0546 24.6931 33.8375 25.0595 34.1741 25.1408L34.651 25.6881L33.2069 25.7135C33.1618 25.7143 33.1182 25.7299 33.0829 25.7579C33.0476 25.786 33.0225 25.8249 33.0115 25.8687C33.0006 25.9124 33.0043 25.9586 33.0222 26C33.0402 26.0414 33.0712 26.0757 33.1106 26.0977L34.5535 26.9029L34.1319 27.1695C32.3659 27.4175 30.9608 26.1112 30.4932 25.6083ZM36.8333 26.7568C36.6855 26.6974 36.5235 26.6829 36.3674 26.7149C36.2114 26.747 36.0682 26.8243 35.9558 26.9372C35.4325 27.4584 34.8646 27.4854 34.4961 27.4248L35.0642 27.0654C35.0942 27.0464 35.1188 27.0199 35.1355 26.9885C35.1523 26.9571 35.1605 26.9219 35.1596 26.8864C35.1586 26.8509 35.1484 26.8162 35.13 26.7858C35.1115 26.7554 35.0855 26.7303 35.0545 26.713L33.9748 26.1104L35.0986 26.0907C35.1376 26.09 35.1757 26.0782 35.2083 26.0566C35.2408 26.035 35.2665 26.0046 35.2824 25.9689C35.2983 25.9332 35.3036 25.8937 35.2978 25.8551C35.292 25.8165 35.2753 25.7803 35.2496 25.7509L34.6748 25.0913C35.0997 25.2367 35.6554 25.5178 36.0119 26.0473C36.0773 26.1442 36.1628 26.2258 36.2627 26.2864C36.3626 26.3471 36.4744 26.3855 36.5905 26.3989C36.9608 26.4421 38.3871 27.1149 39.1042 28.1644C39.1111 28.2098 39.1179 28.2552 39.1247 28.3007C38.2681 27.3364 37.2571 26.9277 36.8333 26.7566V26.7568ZM39.8251 33.2952C39.822 33.3255 39.8079 33.3536 39.7853 33.3741C39.7628 33.3945 39.7334 33.4059 39.703 33.406C39.6858 33.4059 39.6689 33.4023 39.6532 33.3953C39.6375 33.3883 39.6235 33.3781 39.612 33.3653C39.6006 33.3525 39.5919 33.3375 39.5866 33.3211C39.5813 33.3048 39.5796 33.2875 39.5814 33.2705C40.012 29.2347 39.3827 26.4729 38.0706 22.7881C37.5657 21.3705 37.3821 19.8257 37.371 18.3596C37.371 18.3573 37.371 18.3552 37.371 18.3528C37.3688 17.1184 37.4674 15.8859 37.6658 14.6676C37.6896 14.5182 37.7059 14.3689 37.7163 14.2199C37.7269 14.1989 37.7339 14.1763 37.7368 14.1529C37.8042 13.5804 37.9089 13.0128 38.0503 12.454C38.1004 12.659 38.1479 12.8658 38.1928 13.0741C37.7869 14.8309 37.0191 19.2073 38.3432 22.9255C39.3008 25.6143 39.8892 27.8064 39.957 30.3737C39.9567 30.3821 39.957 30.3905 39.9578 30.3988C39.9787 31.3661 39.9343 32.3337 39.8251 33.295V33.2952ZM40.3577 30.0663C40.2536 27.578 39.6651 25.4156 38.7293 22.7881C38.5155 22.1797 38.3524 21.5546 38.2418 20.9193C38.5341 20.0827 39.0333 19.3335 39.6928 18.7416C39.166 19.9541 39.1763 21.3226 39.7322 22.7466C40.0424 23.538 40.4769 24.2749 41.0194 24.9294L41.0262 24.9232C41.2923 26.2845 41.7879 27.5907 42.4918 28.7859C41.8262 29.2845 41.111 29.7135 40.3577 30.0661V30.0663ZM48.4438 31.6366C46.786 31.3882 45.5366 30.1835 44.8981 29.4246C46.3116 30.0161 47.816 30.3608 49.346 30.4437C49.6114 30.4582 49.8627 30.4643 50.0979 30.4643C51.3399 30.4643 52.1325 30.2934 52.1716 30.2848C52.2239 30.2724 52.2693 30.2398 52.2978 30.1943C52.3264 30.1487 52.3359 30.0938 52.3244 30.0412C52.3128 29.9887 52.2811 29.9428 52.2361 29.9135C52.191 29.8841 52.1362 29.8736 52.0835 29.8843C52.0441 29.8928 48.4878 30.638 44.685 28.8819C46.8686 27.6048 48.7361 27.2298 50.2396 27.7682C51.792 28.3243 52.4946 29.7242 52.6779 30.153C51.26 31.3465 49.836 31.8454 48.4438 31.6366Z" fill="white"/>
<path d="M57.8106 24.7751C57.8512 24.5012 57.9532 24.24 58.109 24.0111C58.2642 23.7877 58.3447 23.5209 58.3388 23.2489C58.3329 22.9769 58.2409 22.7138 58.0761 22.4973C57.8908 22.2622 57.644 22.1658 57.4295 22.2429L57.4248 22.2445C57.4233 22.245 57.4217 22.2453 57.4202 22.246C57.2791 22.3003 57.0187 22.3221 56.6869 22.3075C56.5258 22.3008 56.3665 22.3431 56.23 22.4289C56.0935 22.5146 55.9861 22.6398 55.9222 22.7878C55.7445 23.2006 55.6961 23.5081 55.7744 23.7275C55.8291 23.8815 55.7539 24.2136 55.6935 24.4804C55.6295 24.7627 55.5742 25.0065 55.6103 25.1914C55.6215 25.2461 55.6442 25.2979 55.677 25.3431C55.7099 25.3883 55.752 25.4259 55.8007 25.4535C55.9374 25.5372 56.1412 25.5669 56.3583 25.5669C56.6879 25.5601 57.0154 25.5126 57.3333 25.4254C57.7019 25.3196 57.7572 25.0428 57.8106 24.7751ZM57.2195 25.032C56.7239 25.175 56.1202 25.192 56.0111 25.1028C55.997 24.9972 56.0481 24.7714 56.0932 24.5715C56.1729 24.2199 56.2554 23.8563 56.1604 23.59C56.1457 23.549 56.1125 23.3822 56.2985 22.9503C56.3299 22.879 56.382 22.8187 56.448 22.7773C56.514 22.7359 56.5909 22.7152 56.6688 22.7179C56.8118 22.7241 56.9422 22.724 57.0598 22.7179C56.9254 22.9435 56.7932 23.2158 56.7889 23.4204C56.7883 23.4473 56.793 23.4741 56.8027 23.4992C56.8125 23.5243 56.8271 23.5472 56.8457 23.5667C56.8644 23.5861 56.8866 23.6017 56.9113 23.6126C56.936 23.6234 56.9625 23.6293 56.9894 23.6299H56.994C57.0476 23.6299 57.0991 23.6089 57.1375 23.5714C57.1758 23.5339 57.1979 23.4829 57.1991 23.4293C57.2027 23.2631 57.4247 22.887 57.606 22.6317C57.6656 22.6568 57.7168 22.6982 57.7538 22.7513C57.863 22.8995 57.9234 23.0781 57.9265 23.2621C57.9296 23.4462 57.8753 23.6267 57.7711 23.7785C57.5837 24.0533 57.4597 24.3664 57.4081 24.695C57.3547 24.9639 57.335 24.9985 57.2195 25.032Z" fill="white"/>
<path d="M59.2782 26.2529C59.2393 26.1132 59.1591 25.9885 59.0481 25.8951C58.9371 25.8018 58.8005 25.7441 58.6562 25.7297C58.2616 25.6919 57.989 25.7351 57.8228 25.8622C57.7168 25.9434 57.4275 25.9689 57.195 25.9893C56.942 26.0116 56.7238 26.0308 56.5756 26.1124C56.53 26.1379 56.4904 26.1728 56.4595 26.2149C56.4286 26.257 56.4071 26.3052 56.3964 26.3563C56.3038 26.7386 56.6775 27.4081 56.8293 27.6338C57.0239 27.9233 57.2865 27.8936 57.5182 27.8668C57.7511 27.8284 57.9897 27.843 58.2162 27.9095C58.3251 27.9427 58.4383 27.9597 58.5522 27.9599C58.7357 27.959 58.9164 27.9141 59.079 27.8289C59.2416 27.7438 59.3813 27.6208 59.4865 27.4704C59.6402 27.2421 59.6525 26.997 59.5186 26.8309C59.4385 26.7318 59.3532 26.5265 59.2782 26.2529ZM59.1459 27.2412C59.0426 27.3837 58.8922 27.4851 58.7214 27.5274C58.7011 27.3669 58.6296 27.2173 58.5176 27.1006C58.4799 27.0614 58.4282 27.0387 58.3738 27.0376C58.3194 27.0365 58.2668 27.0571 58.2275 27.0947C58.1883 27.1324 58.1656 27.1842 58.1645 27.2386C58.1634 27.2929 58.184 27.3456 58.2217 27.3848C58.2551 27.4195 58.2808 27.461 58.2969 27.5064C58.1344 27.4601 57.9663 27.4365 57.7974 27.4363C57.6883 27.4376 57.5794 27.4453 57.4713 27.4594C57.2389 27.486 57.2183 27.4783 57.1693 27.405C56.934 27.0553 56.7649 26.5949 56.7917 26.463C56.9353 26.426 57.0824 26.4042 57.2306 26.3979C57.5454 26.3702 57.871 26.3416 58.0717 26.188C58.1292 26.1439 58.3025 26.1079 58.6165 26.138C58.6782 26.1441 58.7366 26.1687 58.7841 26.2085C58.8315 26.2484 58.8659 26.3016 58.8826 26.3613C58.9747 26.6976 59.0811 26.9424 59.1989 27.0883C59.2045 27.0952 59.2053 27.1533 59.1459 27.2412Z" fill="white"/>
<path d="M51.5898 23.7618C51.305 23.6942 51.057 23.7676 50.9335 23.9523C50.9291 23.9577 50.925 23.9633 50.9212 23.9692C50.9206 23.9701 50.9199 23.9708 50.9192 23.9718C50.8423 24.1016 50.6518 24.2807 50.3827 24.4754C50.2525 24.5703 50.1541 24.7024 50.1003 24.8543C50.0465 25.0062 50.0399 25.1708 50.0813 25.3265C50.1982 25.7605 50.3512 26.0316 50.5489 26.155C50.6875 26.2417 50.8346 26.5488 50.9528 26.7956C51.0778 27.0566 51.1858 27.2821 51.3292 27.4049C51.3998 27.465 51.4899 27.4973 51.5826 27.4958C51.6022 27.4958 51.6217 27.4946 51.6411 27.4922C52.0786 27.439 52.6571 26.7546 52.8254 26.5191C53.0484 26.2068 52.9198 25.9555 52.7954 25.7125C52.6573 25.4725 52.5752 25.2044 52.5551 24.9282C52.5381 24.6568 52.4355 24.3976 52.2621 24.1881C52.0887 23.9785 51.8533 23.8293 51.5898 23.7618ZM52.4921 26.2807C52.1933 26.6992 51.7325 27.0862 51.5898 27.0862H51.5884C51.5117 27.0121 51.4117 26.8033 51.3231 26.6184C51.1674 26.2932 51.0063 25.957 50.7666 25.8072C50.7297 25.7842 50.6 25.6738 50.4778 25.2199C50.4577 25.1445 50.4608 25.0648 50.4868 24.9913C50.5128 24.9177 50.5605 24.8537 50.6234 24.8077C50.7395 24.7238 50.8417 24.6429 50.9302 24.5651C50.965 24.8255 51.0305 25.121 51.1539 25.2841C51.1867 25.3275 51.2355 25.3561 51.2893 25.3635C51.3432 25.371 51.3979 25.3567 51.4412 25.3239C51.4846 25.2911 51.5132 25.2424 51.5206 25.1885C51.5281 25.1346 51.5138 25.08 51.481 25.0366C51.3807 24.904 51.321 24.4718 51.3049 24.1588C51.3672 24.1416 51.4331 24.1423 51.495 24.1609C51.6726 24.2093 51.8308 24.3118 51.9476 24.4542C52.0643 24.5966 52.1338 24.7719 52.1464 24.9556C52.1701 25.2873 52.2672 25.6097 52.4307 25.8993C52.5555 26.1432 52.5618 26.1824 52.4918 26.2804L52.4921 26.2807Z" fill="white"/>
<path d="M55.4111 26.2642C55.287 26.2362 55.0928 26.1281 54.8642 25.9601C54.7469 25.8747 54.6065 25.8266 54.4615 25.8223C54.3165 25.818 54.1735 25.8577 54.0514 25.9361C53.7184 26.1514 53.5319 26.3545 53.4803 26.5571C53.4476 26.6866 53.2365 26.886 53.0669 27.0463C52.8824 27.2206 52.7233 27.3712 52.6577 27.5272C52.6378 27.5754 52.6285 27.6274 52.6304 27.6796C52.6322 27.7317 52.6453 27.7829 52.6686 27.8296C52.8334 28.1869 53.542 28.48 53.8012 28.5627C53.8612 28.5826 53.924 28.5931 53.9873 28.5938C54.2089 28.5938 54.3544 28.4489 54.4859 28.3178C54.6447 28.1431 54.8409 28.0065 55.0598 27.9182C55.2845 27.8302 55.4756 27.6731 55.6056 27.4697C55.7356 27.2663 55.7978 27.0269 55.7832 26.7859C55.7618 26.5113 55.6191 26.3116 55.4111 26.2642ZM55.2188 27.305C55.1032 27.1918 54.9542 27.1188 54.7938 27.0969C54.7399 27.0895 54.6853 27.1038 54.642 27.1367C54.5986 27.1695 54.5701 27.2183 54.5627 27.2722C54.5554 27.3261 54.5697 27.3807 54.6025 27.424C54.6354 27.4674 54.6842 27.4959 54.7381 27.5033C54.7859 27.5098 54.8318 27.5266 54.8726 27.5526C54.6164 27.6618 54.386 27.8235 54.1963 28.0274C54.0305 28.1926 54.01 28.1988 53.9258 28.1722C53.5243 28.0439 53.1055 27.7879 53.0449 27.6679C53.1345 27.5497 53.2362 27.4414 53.3485 27.3445C53.5782 27.1274 53.8158 26.9029 53.8778 26.6579C53.8955 26.5879 54.0088 26.452 54.2738 26.2807C54.326 26.2471 54.3871 26.2302 54.4491 26.232C54.511 26.2338 54.571 26.2543 54.6212 26.2908C54.9023 26.4973 55.1375 26.623 55.3204 26.6644C55.3291 26.6663 55.3659 26.7115 55.3741 26.8176C55.3814 26.9933 55.3264 27.1659 55.2188 27.305Z" fill="white"/>
<path d="M52.73 24.0401C52.8643 24.1334 52.996 24.4473 53.102 24.6996C53.214 24.9662 53.3108 25.197 53.4479 25.3267C53.5213 25.3955 53.6188 25.4329 53.7194 25.4306C53.731 25.4306 53.7428 25.4302 53.7551 25.4293C54.1947 25.3977 54.8063 24.7427 54.9856 24.5157C55.2237 24.2149 55.1077 23.9576 54.9954 23.7087C54.8693 23.4622 54.8005 23.1904 54.7941 22.9136C54.7941 22.9085 54.7933 22.9037 54.7932 22.8986C54.7932 22.8971 54.7932 22.8955 54.7932 22.894C54.7856 22.6255 54.6942 22.3661 54.5318 22.1521C54.3693 21.9382 54.144 21.7804 53.8874 21.701C53.5957 21.6162 53.3353 21.6839 53.2076 21.8776C53.1244 22.0038 52.9253 22.173 52.647 22.3542C52.5123 22.4426 52.4075 22.5697 52.3463 22.7188C52.2851 22.8679 52.2703 23.0319 52.3041 23.1895C52.3994 23.6287 52.5387 23.9069 52.73 24.0401ZM52.8706 22.698C53.2046 22.4806 53.4332 22.2806 53.55 22.1032C53.5669 22.0777 53.6472 22.0581 53.7729 22.0946C53.9413 22.1499 54.0893 22.2543 54.1978 22.3944C54.3063 22.5345 54.3703 22.7039 54.3817 22.8808C54.3066 23.0056 54.1854 23.0959 54.0442 23.1321C54.0182 23.14 53.994 23.1529 53.9731 23.1702C53.9521 23.1875 53.9348 23.2088 53.9222 23.2328C53.9095 23.2569 53.9018 23.2832 53.8994 23.3103C53.897 23.3373 53.9 23.3646 53.9082 23.3905C53.9164 23.4164 53.9297 23.4404 53.9473 23.4611C53.9648 23.4818 53.9864 23.4988 54.0106 23.5111C54.0348 23.5235 54.0612 23.5309 54.0883 23.5329C54.1154 23.5349 54.1426 23.5316 54.1684 23.523C54.2661 23.4926 54.3592 23.4489 54.4451 23.3931C54.4884 23.5599 54.5476 23.7222 54.6219 23.8777C54.7346 24.1277 54.739 24.1672 54.6642 24.2616C54.344 24.6662 53.861 25.0335 53.7221 25.0214C53.6492 24.9439 53.5596 24.7304 53.4801 24.5413C53.3406 24.2089 53.1963 23.8651 52.9643 23.7037C52.9286 23.679 52.8045 23.5623 52.7045 23.1029C52.6881 23.0265 52.6952 22.9469 52.7248 22.8747C52.7544 22.8024 52.8053 22.7408 52.8706 22.698Z" fill="white"/>
<path d="M12.3984 57H10.0234L10.0391 55.7734H12.3984C13.2109 55.7734 13.888 55.6042 14.4297 55.2656C14.9714 54.9219 15.3776 54.4427 15.6484 53.8281C15.9245 53.2083 16.0625 52.4844 16.0625 51.6562V50.9609C16.0625 50.3099 15.9844 49.7318 15.8281 49.2266C15.6719 48.7161 15.4427 48.2865 15.1406 47.9375C14.8385 47.5833 14.4688 47.3151 14.0312 47.1328C13.599 46.9505 13.1016 46.8594 12.5391 46.8594H9.97656V45.625H12.5391C13.2839 45.625 13.9635 45.75 14.5781 46C15.1927 46.2448 15.7214 46.6016 16.1641 47.0703C16.612 47.5339 16.9557 48.0964 17.1953 48.7578C17.4349 49.4141 17.5547 50.1536 17.5547 50.9766V51.6562C17.5547 52.4792 17.4349 53.2214 17.1953 53.8828C16.9557 54.5391 16.6094 55.099 16.1562 55.5625C15.7083 56.026 15.1667 56.3828 14.5312 56.6328C13.901 56.8776 13.1901 57 12.3984 57ZM10.8281 45.625V57H9.32031V45.625H10.8281ZM24.7359 55.5547V51.2031C24.7359 50.8698 24.6682 50.5807 24.5328 50.3359C24.4026 50.0859 24.2047 49.8932 23.9391 49.7578C23.6734 49.6224 23.3453 49.5547 22.9547 49.5547C22.5901 49.5547 22.2698 49.6172 21.9937 49.7422C21.7229 49.8672 21.5094 50.0312 21.3531 50.2344C21.2021 50.4375 21.1266 50.6562 21.1266 50.8906H19.6812C19.6812 50.5885 19.7594 50.2891 19.9156 49.9922C20.0719 49.6953 20.2958 49.4271 20.5875 49.1875C20.8844 48.9427 21.2385 48.75 21.65 48.6094C22.0667 48.4635 22.5302 48.3906 23.0406 48.3906C23.6552 48.3906 24.1969 48.4948 24.6656 48.7031C25.1396 48.9115 25.5094 49.2266 25.775 49.6484C26.0458 50.0651 26.1812 50.5885 26.1812 51.2188V55.1562C26.1812 55.4375 26.2047 55.737 26.2516 56.0547C26.3036 56.3724 26.3792 56.6458 26.4781 56.875V57H24.9703C24.8974 56.8333 24.8401 56.612 24.7984 56.3359C24.7568 56.0547 24.7359 55.7943 24.7359 55.5547ZM24.9859 51.875L25.0016 52.8906H23.5406C23.1292 52.8906 22.762 52.9245 22.4391 52.9922C22.1161 53.0547 21.8453 53.151 21.6266 53.2812C21.4078 53.4115 21.2411 53.5755 21.1266 53.7734C21.012 53.9661 20.9547 54.1927 20.9547 54.4531C20.9547 54.7188 21.0146 54.9609 21.1344 55.1797C21.2542 55.3984 21.4339 55.5729 21.6734 55.7031C21.9182 55.8281 22.2177 55.8906 22.5719 55.8906C23.0146 55.8906 23.4052 55.7969 23.7437 55.6094C24.0823 55.4219 24.3505 55.1927 24.5484 54.9219C24.7516 54.651 24.8609 54.388 24.8766 54.1328L25.4937 54.8281C25.4573 55.0469 25.3583 55.2891 25.1969 55.5547C25.0354 55.8203 24.8193 56.0755 24.5484 56.3203C24.2828 56.5599 23.9651 56.7604 23.5953 56.9219C23.2307 57.0781 22.8193 57.1562 22.3609 57.1562C21.788 57.1562 21.2854 57.0443 20.8531 56.8203C20.426 56.5964 20.0927 56.2969 19.8531 55.9219C19.6187 55.5417 19.5016 55.1172 19.5016 54.6484C19.5016 54.1953 19.5901 53.7969 19.7672 53.4531C19.9443 53.1042 20.1995 52.8151 20.5328 52.5859C20.8661 52.3516 21.2672 52.1745 21.7359 52.0547C22.2047 51.9349 22.7281 51.875 23.3062 51.875H24.9859ZM32.1437 48.5469V49.6562H27.5734V48.5469H32.1437ZM29.1203 46.4922H30.5656V54.9062C30.5656 55.1927 30.6099 55.4089 30.6984 55.5547C30.787 55.7005 30.9016 55.7969 31.0422 55.8438C31.1828 55.8906 31.3339 55.9141 31.4953 55.9141C31.6151 55.9141 31.7401 55.9036 31.8703 55.8828C32.0057 55.8568 32.1073 55.8359 32.175 55.8203L32.1828 57C32.0682 57.0365 31.9172 57.0703 31.7297 57.1016C31.5474 57.138 31.326 57.1562 31.0656 57.1562C30.7115 57.1562 30.3859 57.0859 30.0891 56.9453C29.7922 56.8047 29.5552 56.5703 29.3781 56.2422C29.2062 55.9089 29.1203 55.4609 29.1203 54.8984V46.4922ZM38.9734 55.5547V51.2031C38.9734 50.8698 38.9057 50.5807 38.7703 50.3359C38.6401 50.0859 38.4422 49.8932 38.1766 49.7578C37.9109 49.6224 37.5828 49.5547 37.1922 49.5547C36.8276 49.5547 36.5073 49.6172 36.2313 49.7422C35.9604 49.8672 35.7469 50.0312 35.5906 50.2344C35.4396 50.4375 35.3641 50.6562 35.3641 50.8906H33.9188C33.9188 50.5885 33.9969 50.2891 34.1531 49.9922C34.3094 49.6953 34.5333 49.4271 34.825 49.1875C35.1219 48.9427 35.476 48.75 35.8875 48.6094C36.3042 48.4635 36.7677 48.3906 37.2781 48.3906C37.8927 48.3906 38.4344 48.4948 38.9031 48.7031C39.3771 48.9115 39.7469 49.2266 40.0125 49.6484C40.2833 50.0651 40.4188 50.5885 40.4188 51.2188V55.1562C40.4188 55.4375 40.4422 55.737 40.4891 56.0547C40.5411 56.3724 40.6167 56.6458 40.7156 56.875V57H39.2078C39.1349 56.8333 39.0776 56.612 39.0359 56.3359C38.9943 56.0547 38.9734 55.7943 38.9734 55.5547ZM39.2234 51.875L39.2391 52.8906H37.7781C37.3667 52.8906 36.9995 52.9245 36.6766 52.9922C36.3536 53.0547 36.0828 53.151 35.8641 53.2812C35.6453 53.4115 35.4786 53.5755 35.3641 53.7734C35.2495 53.9661 35.1922 54.1927 35.1922 54.4531C35.1922 54.7188 35.2521 54.9609 35.3719 55.1797C35.4917 55.3984 35.6714 55.5729 35.9109 55.7031C36.1557 55.8281 36.4552 55.8906 36.8094 55.8906C37.2521 55.8906 37.6427 55.7969 37.9813 55.6094C38.3198 55.4219 38.588 55.1927 38.7859 54.9219C38.9891 54.651 39.0984 54.388 39.1141 54.1328L39.7313 54.8281C39.6948 55.0469 39.5958 55.2891 39.4344 55.5547C39.2729 55.8203 39.0568 56.0755 38.7859 56.3203C38.5203 56.5599 38.2026 56.7604 37.8328 56.9219C37.4682 57.0781 37.0568 57.1562 36.5984 57.1562C36.0255 57.1562 35.5229 57.0443 35.0906 56.8203C34.6635 56.5964 34.3302 56.2969 34.0906 55.9219C33.8563 55.5417 33.7391 55.1172 33.7391 54.6484C33.7391 54.1953 33.8276 53.7969 34.0047 53.4531C34.1818 53.1042 34.437 52.8151 34.7703 52.5859C35.1036 52.3516 35.5047 52.1745 35.9734 52.0547C36.4422 51.9349 36.9656 51.875 37.5438 51.875H39.2234ZM49.1234 54.125C49.1234 53.8594 49.0818 53.625 48.9984 53.4219C48.9203 53.2135 48.7797 53.026 48.5766 52.8594C48.3786 52.6927 48.1026 52.5339 47.7484 52.3828C47.3995 52.2318 46.9568 52.0781 46.4203 51.9219C45.8578 51.7552 45.35 51.5703 44.8969 51.3672C44.4437 51.1589 44.0557 50.9219 43.7328 50.6562C43.4099 50.3906 43.1625 50.0859 42.9906 49.7422C42.8187 49.3984 42.7328 49.0052 42.7328 48.5625C42.7328 48.1198 42.824 47.7109 43.0062 47.3359C43.1885 46.9609 43.449 46.6354 43.7875 46.3594C44.1312 46.0781 44.5401 45.8594 45.0141 45.7031C45.488 45.5469 46.0167 45.4688 46.6 45.4688C47.4542 45.4688 48.1781 45.6328 48.7719 45.9609C49.3708 46.2839 49.8266 46.7083 50.1391 47.2344C50.4516 47.7552 50.6078 48.3125 50.6078 48.9062H49.1078C49.1078 48.4792 49.0167 48.1016 48.8344 47.7734C48.6521 47.4401 48.376 47.1797 48.0062 46.9922C47.6365 46.7995 47.1677 46.7031 46.6 46.7031C46.0635 46.7031 45.6208 46.7839 45.2719 46.9453C44.9229 47.1068 44.6625 47.3255 44.4906 47.6016C44.324 47.8776 44.2406 48.1927 44.2406 48.5469C44.2406 48.7865 44.2901 49.0052 44.3891 49.2031C44.4932 49.3958 44.6521 49.5755 44.8656 49.7422C45.0844 49.9089 45.3604 50.0625 45.6937 50.2031C46.0323 50.3438 46.4359 50.4792 46.9047 50.6094C47.5505 50.7917 48.1078 50.9948 48.5766 51.2188C49.0453 51.4427 49.4307 51.6953 49.7328 51.9766C50.0401 52.2526 50.2667 52.5677 50.4125 52.9219C50.5635 53.2708 50.6391 53.6667 50.6391 54.1094C50.6391 54.5729 50.5453 54.9922 50.3578 55.3672C50.1703 55.7422 49.9021 56.0625 49.5531 56.3281C49.2042 56.5938 48.7849 56.7995 48.2953 56.9453C47.8109 57.0859 47.2693 57.1562 46.6703 57.1562C46.1443 57.1562 45.626 57.0833 45.1156 56.9375C44.6104 56.7917 44.1495 56.5729 43.7328 56.2812C43.3214 55.9896 42.9906 55.6302 42.7406 55.2031C42.4958 54.7708 42.3734 54.2708 42.3734 53.7031H43.8734C43.8734 54.0938 43.949 54.4297 44.1 54.7109C44.251 54.987 44.4568 55.2161 44.7172 55.3984C44.9828 55.5807 45.2823 55.7161 45.6156 55.8047C45.9542 55.888 46.3057 55.9297 46.6703 55.9297C47.1964 55.9297 47.6417 55.8568 48.0062 55.7109C48.3708 55.5651 48.6469 55.3568 48.8344 55.0859C49.0271 54.8151 49.1234 54.4948 49.1234 54.125ZM57.4766 55.5547V51.2031C57.4766 50.8698 57.4089 50.5807 57.2734 50.3359C57.1432 50.0859 56.9453 49.8932 56.6797 49.7578C56.4141 49.6224 56.0859 49.5547 55.6953 49.5547C55.3307 49.5547 55.0104 49.6172 54.7344 49.7422C54.4635 49.8672 54.25 50.0312 54.0938 50.2344C53.9427 50.4375 53.8672 50.6562 53.8672 50.8906H52.4219C52.4219 50.5885 52.5 50.2891 52.6562 49.9922C52.8125 49.6953 53.0365 49.4271 53.3281 49.1875C53.625 48.9427 53.9792 48.75 54.3906 48.6094C54.8073 48.4635 55.2708 48.3906 55.7812 48.3906C56.3958 48.3906 56.9375 48.4948 57.4062 48.7031C57.8802 48.9115 58.25 49.2266 58.5156 49.6484C58.7865 50.0651 58.9219 50.5885 58.9219 51.2188V55.1562C58.9219 55.4375 58.9453 55.737 58.9922 56.0547C59.0443 56.3724 59.1198 56.6458 59.2188 56.875V57H57.7109C57.638 56.8333 57.5807 56.612 57.5391 56.3359C57.4974 56.0547 57.4766 55.7943 57.4766 55.5547ZM57.7266 51.875L57.7422 52.8906H56.2812C55.8698 52.8906 55.5026 52.9245 55.1797 52.9922C54.8568 53.0547 54.5859 53.151 54.3672 53.2812C54.1484 53.4115 53.9818 53.5755 53.8672 53.7734C53.7526 53.9661 53.6953 54.1927 53.6953 54.4531C53.6953 54.7188 53.7552 54.9609 53.875 55.1797C53.9948 55.3984 54.1745 55.5729 54.4141 55.7031C54.6589 55.8281 54.9583 55.8906 55.3125 55.8906C55.7552 55.8906 56.1458 55.7969 56.4844 55.6094C56.8229 55.4219 57.0911 55.1927 57.2891 54.9219C57.4922 54.651 57.6016 54.388 57.6172 54.1328L58.2344 54.8281C58.1979 55.0469 58.099 55.2891 57.9375 55.5547C57.776 55.8203 57.5599 56.0755 57.2891 56.3203C57.0234 56.5599 56.7057 56.7604 56.3359 56.9219C55.9714 57.0781 55.5599 57.1562 55.1016 57.1562C54.5286 57.1562 54.026 57.0443 53.5938 56.8203C53.1667 56.5964 52.8333 56.2969 52.5938 55.9219C52.3594 55.5417 52.2422 55.1172 52.2422 54.6484C52.2422 54.1953 52.3307 53.7969 52.5078 53.4531C52.6849 53.1042 52.9401 52.8151 53.2734 52.5859C53.6068 52.3516 54.0078 52.1745 54.4766 52.0547C54.9453 51.9349 55.4688 51.875 56.0469 51.875H57.7266ZM66.8219 48.5469H68.1344V56.8203C68.1344 57.5651 67.9833 58.2005 67.6813 58.7266C67.3792 59.2526 66.9573 59.651 66.4156 59.9219C65.8792 60.1979 65.2594 60.3359 64.5563 60.3359C64.2646 60.3359 63.9208 60.2891 63.525 60.1953C63.1344 60.1068 62.749 59.9531 62.3688 59.7344C61.9938 59.5208 61.6786 59.2318 61.4234 58.8672L62.1813 58.0078C62.5354 58.4349 62.9052 58.7318 63.2906 58.8984C63.6813 59.0651 64.0667 59.1484 64.4469 59.1484C64.9052 59.1484 65.301 59.0625 65.6344 58.8906C65.9677 58.7188 66.2255 58.4635 66.4078 58.125C66.5953 57.7917 66.6891 57.3802 66.6891 56.8906V50.4062L66.8219 48.5469ZM61.0016 52.8672V52.7031C61.0016 52.0573 61.0771 51.4714 61.2281 50.9453C61.3844 50.4141 61.6057 49.9583 61.8922 49.5781C62.1839 49.1979 62.5354 48.9062 62.9469 48.7031C63.3583 48.4948 63.8219 48.3906 64.3375 48.3906C64.8688 48.3906 65.3323 48.4844 65.7281 48.6719C66.1292 48.8542 66.4677 49.1224 66.7438 49.4766C67.025 49.8255 67.2464 50.2474 67.4078 50.7422C67.5693 51.237 67.6813 51.7969 67.7438 52.4219V53.1406C67.6865 53.7604 67.5745 54.3177 67.4078 54.8125C67.2464 55.3073 67.025 55.7292 66.7438 56.0781C66.4677 56.4271 66.1292 56.6953 65.7281 56.8828C65.3271 57.0651 64.8583 57.1562 64.3219 57.1562C63.8167 57.1562 63.3583 57.0495 62.9469 56.8359C62.5406 56.6224 62.1917 56.3229 61.9 55.9375C61.6083 55.5521 61.3844 55.099 61.2281 54.5781C61.0771 54.0521 61.0016 53.4818 61.0016 52.8672ZM62.4469 52.7031V52.8672C62.4469 53.2891 62.4885 53.6849 62.5719 54.0547C62.6604 54.4245 62.7932 54.75 62.9703 55.0312C63.1526 55.3125 63.3844 55.5339 63.6656 55.6953C63.9469 55.8516 64.2828 55.9297 64.6734 55.9297C65.1526 55.9297 65.5484 55.8281 65.8609 55.625C66.1734 55.4219 66.4208 55.1536 66.6031 54.8203C66.7906 54.487 66.9365 54.125 67.0406 53.7344V51.8516C66.9833 51.5651 66.8948 51.2891 66.775 51.0234C66.6604 50.7526 66.5094 50.513 66.3219 50.3047C66.1396 50.0911 65.913 49.9219 65.6422 49.7969C65.3714 49.6719 65.0536 49.6094 64.6891 49.6094C64.2932 49.6094 63.9521 49.6927 63.6656 49.8594C63.3844 50.0208 63.1526 50.2448 62.9703 50.5312C62.7932 50.8125 62.6604 51.1406 62.5719 51.5156C62.4885 51.8854 62.4469 52.2812 62.4469 52.7031ZM73.9875 57.1562C73.399 57.1562 72.8651 57.0573 72.3859 56.8594C71.912 56.6562 71.5031 56.3724 71.1594 56.0078C70.8208 55.6432 70.5604 55.2109 70.3781 54.7109C70.1958 54.2109 70.1047 53.6641 70.1047 53.0703V52.7422C70.1047 52.0547 70.2062 51.4427 70.4094 50.9062C70.6125 50.3646 70.8885 49.9062 71.2375 49.5312C71.5865 49.1562 71.9823 48.8724 72.425 48.6797C72.8677 48.487 73.326 48.3906 73.8 48.3906C74.4042 48.3906 74.925 48.4948 75.3625 48.7031C75.8052 48.9115 76.1672 49.2031 76.4484 49.5781C76.7297 49.9479 76.938 50.3854 77.0734 50.8906C77.2089 51.3906 77.2766 51.9375 77.2766 52.5312V53.1797H70.9641V52H75.8312V51.8906C75.8104 51.5156 75.7323 51.151 75.5969 50.7969C75.4667 50.4427 75.2583 50.151 74.9719 49.9219C74.6854 49.6927 74.2948 49.5781 73.8 49.5781C73.4719 49.5781 73.1698 49.6484 72.8937 49.7891C72.6177 49.9245 72.3807 50.1276 72.1828 50.3984C71.9849 50.6693 71.8312 51 71.7219 51.3906C71.6125 51.7812 71.5578 52.2318 71.5578 52.7422V53.0703C71.5578 53.4714 71.6125 53.849 71.7219 54.2031C71.8365 54.5521 72.0005 54.8594 72.2141 55.125C72.4328 55.3906 72.6958 55.599 73.0031 55.75C73.3156 55.901 73.6698 55.9766 74.0656 55.9766C74.576 55.9766 75.0083 55.8724 75.3625 55.6641C75.7167 55.4557 76.0266 55.1771 76.2922 54.8281L77.1672 55.5234C76.9849 55.7995 76.7531 56.0625 76.4719 56.3125C76.1906 56.5625 75.8443 56.7656 75.4328 56.9219C75.0266 57.0781 74.5448 57.1562 73.9875 57.1562Z" fill="white"/>
</svg>
