<svg width="109" height="35" viewBox="0 0 109 35" fill="none" xmlns="http://www.w3.org/2000/svg">
<path d="M24.8831 27.3848C23.2046 26.7809 21.1394 27.2132 18.7438 28.6682C18.5488 28.5684 18.3537 28.4616 18.1583 28.3477C18.299 28.2178 18.4346 28.0864 18.5652 27.9534C19.0077 27.8372 21.6156 27.0709 22.7526 24.8596C23.4703 23.4632 23.4403 21.7928 22.6627 19.895C22.6472 19.8573 22.621 19.8251 22.5872 19.8024C22.5534 19.7798 22.5136 19.7677 22.4729 19.7677C22.3854 19.7677 20.3144 19.7907 18.9788 21.4737C17.8695 22.8715 17.6192 24.9678 18.2332 27.7047C18.0629 27.8763 17.8842 28.0451 17.697 28.2112C17.6838 28.2203 17.6717 28.231 17.661 28.2429C17.5499 28.3403 17.4359 28.4365 17.3187 28.5315C16.6518 27.3874 16.1823 26.1392 15.9296 24.8393C17.8334 23.1115 19.7351 20.5399 18.4685 17.822C18.8676 17.6121 19.234 17.3452 19.5562 17.0296C19.9966 16.5997 20.3703 16.1064 20.6649 15.566C20.6887 15.5216 20.7024 15.4724 20.7051 15.4221C20.7077 15.3717 20.6993 15.3214 20.6803 15.2747C20.6613 15.228 20.6322 15.186 20.5952 15.1518C20.5581 15.1176 20.514 15.092 20.466 15.0767C18.9091 14.5777 17.4391 15.0518 16.7353 15.3577C16.7121 15.3149 16.6743 15.282 16.6288 15.2649C16.5832 15.2479 16.5331 15.2478 16.4875 15.2648C16.4305 15.2853 15.0861 15.7815 14.6232 17.0395C14.6032 17.0936 14.5716 17.1427 14.5308 17.1835C14.49 17.2243 14.4408 17.2558 14.3866 17.2758C13.9875 17.4242 13.1095 18.1644 12.5382 19.1478C12.3955 16.6427 12.8265 14.3148 13.0942 13.1584C13.4415 12.6272 13.9897 12.2443 14.6379 11.9712C14.884 11.9683 15.5374 12.1385 16.4429 12.8222C16.8334 13.124 17.3137 13.2862 17.8071 13.2828C18.9262 13.2828 20.0441 12.524 20.8013 12.0101C21.0907 11.8137 21.4188 11.5909 21.5268 11.5795C21.5636 11.5755 21.5987 11.5615 21.6283 11.5392C21.6578 11.5168 21.6808 11.4869 21.6947 11.4525C21.7086 11.4181 21.7129 11.3807 21.7072 11.344C21.7015 11.3074 21.686 11.273 21.6623 11.2445C20.7059 10.0941 19.6353 9.50181 18.4805 9.48397C17.6446 9.4703 16.7807 9.75864 15.9142 10.3385C15.3873 10.6965 14.9055 11.1169 14.4794 11.5905C13.8596 11.8519 13.3687 12.188 13.0066 12.5988C12.9344 12.2898 12.8562 11.9847 12.7721 11.6835C12.9465 11.142 13.1586 10.6134 13.4067 10.1015C16.1884 9.88189 18.1084 9.02664 19.1135 7.55746C20.3344 5.77328 19.7348 3.76578 19.7087 3.68149C19.6966 3.64263 19.6733 3.60823 19.6416 3.58267C19.61 3.55711 19.5715 3.54153 19.5309 3.53793C17.493 3.35336 15.8928 3.81643 14.774 4.91305C12.9684 6.68267 13.0393 9.47262 13.0597 9.87594C12.8849 10.2324 12.7213 10.6098 12.5724 11.0084C12.4033 10.466 12.2178 9.93931 12.0209 9.43078C12.0614 9.36354 12.0881 9.28897 12.0997 9.21135C12.5231 6.3434 11.9828 4.15508 10.4938 2.70716C9.30649 1.55257 7.85584 1.25323 7.43946 1.18897C7.35244 1.17518 7.26332 1.19134 7.18668 1.2348C7.11005 1.27827 7.05044 1.34647 7.01761 1.42823C6.28794 3.22929 6.39465 4.94456 7.31525 6.44936C6.40915 6.22685 4.62032 6.0498 3.18245 7.5213C3.14677 7.55773 3.11916 7.60126 3.1014 7.64905C3.08364 7.69685 3.07612 7.74784 3.07935 7.79873C3.08257 7.84962 3.09646 7.89926 3.12011 7.94443C3.14376 7.9896 3.17664 8.02929 3.21663 8.06093C3.46088 8.25377 3.92661 8.70925 4.30176 9.59321C4.7837 10.7287 5.50003 11.4663 6.43102 11.7857C6.79535 11.9085 7.17758 11.9697 7.56203 11.9668C8.51038 11.9668 9.59312 11.6302 10.796 10.9598C10.7977 10.9589 10.799 10.9577 10.8007 10.9568C11.2051 11.4646 11.4992 12.0512 11.6645 12.679C11.8297 13.3068 11.8624 13.9621 11.7604 14.6033C11.5828 15.7009 11.4833 16.8097 11.4626 17.9214C11.3168 17.8002 11.1705 17.684 11.0238 17.5728C11.0156 17.5655 11.0069 17.5588 10.9976 17.5529C10.6302 17.2755 10.2477 17.0187 9.85186 16.7837C9.63995 16.422 8.1733 14.0611 5.7006 13.5686C4.16381 13.2628 2.57118 13.7503 0.966578 15.0179C0.934659 15.0431 0.910966 15.0772 0.898514 15.116C0.886061 15.1547 0.885411 15.1963 0.896647 15.2354C0.921051 15.3206 1.51872 17.3301 3.5183 18.1567C4.09082 18.389 4.70371 18.5056 5.32155 18.4996C5.62254 18.4984 5.92304 18.475 6.22061 18.4297C5.73217 18.6481 5.28115 18.9421 4.88412 19.3008C3.72611 20.3574 3.17301 21.9266 3.24014 23.9649C3.24149 24.0057 3.25497 24.0451 3.27888 24.0782C3.30278 24.1113 3.33602 24.1365 3.37433 24.1506C3.8848 24.3187 4.41921 24.4027 4.95665 24.3993C5.78508 24.4076 6.59972 24.1871 7.31087 23.7621C8.83775 22.8365 9.80223 20.9677 10.1792 18.2076C10.3958 18.1183 10.6191 18.034 10.8491 17.9547C11.0547 18.1133 11.259 18.2817 11.462 18.46C11.4808 19.9374 11.6733 21.4917 12.1839 22.9255C12.7517 24.5195 13.1896 25.9375 13.4664 27.362C12.6464 26.5401 11.539 26.0381 11.138 25.9914C11.0806 25.9849 11.0254 25.966 10.976 25.9361C10.9266 25.9062 10.8844 25.8659 10.852 25.8181C10.1034 24.7061 8.6795 24.5436 8.61927 24.5372C8.57432 24.5317 8.52882 24.5416 8.49021 24.5653C8.4516 24.5889 8.42218 24.625 8.40674 24.6676C7.66846 24.5446 6.12019 24.4352 4.71014 25.2999C4.66707 25.3261 4.6303 25.3615 4.60245 25.4036C4.57459 25.4456 4.55634 25.4932 4.54899 25.5431C4.54163 25.593 4.54536 25.6439 4.55989 25.6922C4.57443 25.7405 4.59943 25.7849 4.6331 25.8225C5.03369 26.2683 6.39178 27.6118 8.18881 27.6116C8.23872 27.6116 8.2891 27.6103 8.33975 27.6082C8.3592 27.6365 8.38549 27.6594 8.41618 27.6749C8.42875 27.6811 9.68335 28.2853 10.7451 27.2277C10.8007 27.1716 10.8715 27.1331 10.9487 27.117C11.026 27.1009 11.1063 27.1078 11.1796 27.137C11.646 27.3253 12.8731 27.8215 13.7194 29.0948C13.8462 30.47 13.8309 31.8547 13.6734 33.2268C13.6584 33.3673 13.6999 33.508 13.7887 33.618C13.8774 33.7279 14.0062 33.7981 14.1467 33.8131C14.2873 33.828 14.428 33.7866 14.5379 33.6978C14.6478 33.6091 14.718 33.4803 14.733 33.3397C14.8394 32.4008 14.8858 31.456 14.8717 30.5112C15.944 30.0288 16.9424 29.3966 17.837 28.6335C18.0929 28.7866 18.3485 28.9277 18.6038 29.0566C18.8354 29.4107 20.4009 31.6691 22.8803 32.0421C23.1072 32.0764 23.3364 32.0936 23.566 32.0936C24.8953 32.0936 26.2347 31.5155 27.5571 30.3691C27.5879 30.3424 27.61 30.3071 27.6207 30.2678C27.6313 30.2284 27.63 30.1868 27.6169 30.1482C27.5885 30.0655 26.9046 28.1116 24.8831 27.3848ZM19.2965 21.7326C20.3201 20.4393 21.8721 20.2219 22.3372 20.1851C23.0139 21.9096 23.0318 23.4177 22.389 24.6695C21.6172 26.173 20.0559 26.9723 19.1351 27.3301C21.054 25.0757 21.7165 22.582 21.9399 21.2986C21.9489 21.2452 21.9364 21.1903 21.9051 21.1461C21.8738 21.1019 21.8262 21.0719 21.7728 21.0626C21.7195 21.0533 21.6646 21.0655 21.6202 21.0965C21.5758 21.1276 21.5454 21.1749 21.5358 21.2282C21.3103 22.5236 20.6228 25.0936 18.5748 27.345C18.0644 24.8707 18.3065 22.9834 19.2965 21.7323V21.7326ZM20.7371 11.027C19.6349 10.904 18.5237 10.8822 17.4175 10.9618C16.7229 11.0082 16.0341 11.1188 15.3599 11.2923C16.0608 10.6649 17.1999 9.87416 18.4738 9.89406C19.4308 9.90882 20.3339 10.3788 21.1603 11.2919C21.0087 11.3752 20.8206 11.5013 20.5705 11.6711C19.5279 12.3788 17.9524 13.4484 16.6898 12.4952C16.282 12.1771 15.832 11.9172 15.3527 11.7227C17.661 11.0635 20.6427 11.4288 20.6852 11.4341C20.7387 11.4402 20.7926 11.425 20.835 11.3917C20.8774 11.3584 20.905 11.3098 20.9119 11.2563C20.9187 11.2028 20.9042 11.1488 20.8715 11.1059C20.8388 11.0631 20.7906 11.0348 20.7372 11.0272L20.7371 11.027ZM15.0608 5.20542C15.9407 4.34307 17.1581 3.90824 18.6883 3.90824C18.9025 3.90824 19.1229 3.91678 19.3497 3.93387C19.454 4.39188 19.712 5.95881 18.7717 7.3299C17.8689 8.64575 16.1384 9.43215 13.6256 9.67066C14.2316 8.53984 15.0137 7.51264 15.9425 6.62757C17.5158 5.12982 19.0057 4.50679 19.0206 4.50071C19.0709 4.48005 19.111 4.44025 19.132 4.39006C19.1529 4.33987 19.1531 4.2834 19.1325 4.23308C19.1118 4.18276 19.072 4.14271 19.0218 4.12173C18.9716 4.10076 18.9152 4.10058 18.8648 4.12124C18.8017 4.14715 17.3006 4.77278 15.6725 6.31825C14.8173 7.13058 14.0813 8.05973 13.4863 9.07812C13.5592 8.07966 13.8666 6.37587 15.0608 5.20542ZM3.67956 17.7798C2.14031 17.1459 1.49835 15.6917 1.33497 15.251C2.80073 14.1278 4.24092 13.6969 5.61789 13.9703C7.2553 14.2953 8.44694 15.5527 9.05705 16.3502C7.81554 15.7331 6.48103 15.3243 5.1069 15.1402C3.21423 14.8873 1.89845 15.1324 1.84336 15.1429C1.8169 15.148 1.79171 15.1582 1.76922 15.173C1.74672 15.1878 1.72736 15.2069 1.71224 15.2292C1.69712 15.2515 1.68655 15.2765 1.68111 15.3029C1.67567 15.3293 1.67549 15.3565 1.68056 15.3829C1.68563 15.4094 1.69586 15.4346 1.71067 15.4571C1.72548 15.4796 1.74457 15.4989 1.76686 15.514C1.78915 15.5292 1.8142 15.5397 1.84058 15.5452C1.86696 15.5506 1.89415 15.5508 1.9206 15.5457C1.96346 15.5375 5.54187 14.8902 9.27135 16.9245C7.03634 18.0996 5.15632 18.3879 3.67956 17.7798ZM7.10245 23.4087C5.66793 24.2809 4.10147 23.9358 3.64633 23.8063C3.61318 21.9655 4.12157 20.5528 5.15844 19.6057C6.39575 18.4756 8.12237 18.2576 9.1347 18.2373C7.75511 18.9436 6.51622 19.8961 5.47912 21.0478C4.37354 22.2762 3.88176 23.2909 3.86132 23.3335C3.84968 23.3578 3.84294 23.3842 3.84148 23.4111C3.84002 23.438 3.84387 23.4649 3.85282 23.4903C3.86177 23.5157 3.87563 23.5391 3.89362 23.5592C3.91161 23.5792 3.93338 23.5955 3.95768 23.6072C3.98197 23.6188 4.00832 23.6256 4.03523 23.627C4.06213 23.6285 4.08906 23.6246 4.11447 23.6157C4.13988 23.6067 4.16329 23.5929 4.18334 23.5749C4.2034 23.5569 4.21971 23.5351 4.23135 23.5108C4.24879 23.4745 5.86172 20.1865 9.73715 18.4004C9.35639 20.8924 8.47114 22.5768 7.10245 23.4087ZM9.96383 17.8531C9.35837 17.7989 8.74872 17.8128 8.14636 17.8946C8.67573 17.6835 9.19147 17.4396 9.6906 17.1645C9.94458 17.3167 10.1983 17.4822 10.4517 17.6611C10.2856 17.7223 10.1231 17.7863 9.96397 17.8531H9.96383ZM18.3528 20.5863C18.0629 21.8016 17.2207 23.0677 15.8485 24.3551C15.5295 22.124 15.957 20.1539 16.5209 18.6657C16.8508 18.6037 17.162 18.4663 17.43 18.2642C17.4595 18.2391 17.4812 18.2061 17.4927 18.1691C17.698 18.127 17.8994 18.0676 18.0947 17.9914C18.4781 18.8005 18.5694 19.7175 18.353 20.5863H18.3528ZM15.3985 24.0813C14.6823 23.008 13.454 20.6058 14.8736 18.3254C14.9401 18.3291 15.0046 18.3489 15.0617 18.3831C15.3656 18.5731 15.7131 18.6819 16.0711 18.6992C15.5482 20.1422 15.1633 21.9943 15.3987 24.0813H15.3985ZM16.5606 15.8963C16.8659 15.7341 18.5226 14.9242 20.2641 15.4437C19.1673 17.4293 17.6027 17.763 17.0813 17.8183L16.6277 17.6659L17.8377 16.5408C17.8706 16.5101 17.8926 16.4695 17.9001 16.425C17.9076 16.3806 17.9003 16.335 17.8793 16.2951C17.8583 16.2553 17.8248 16.2235 17.7839 16.2046C17.743 16.1857 17.6971 16.1808 17.6531 16.1906L16.2443 16.5091L16.5606 15.8963ZM14.5291 17.66C14.6387 17.6194 14.7382 17.5556 14.8208 17.4729C14.9034 17.3902 14.9672 17.2906 15.0076 17.1809C15.228 16.5819 15.7012 16.1768 16.0791 15.9346L15.6777 16.7119C15.6598 16.7466 15.6522 16.7857 15.6558 16.8246C15.6593 16.8634 15.6739 16.9005 15.6978 16.9313C15.7217 16.9622 15.7538 16.9856 15.7906 16.9988C15.8273 17.012 15.867 17.0145 15.9051 17.0059L17.0014 16.758L16.0959 17.5999C16.0698 17.6241 16.0505 17.6546 16.0399 17.6885C16.0292 17.7224 16.0275 17.7585 16.035 17.7933C16.0425 17.828 16.0589 17.8603 16.0826 17.8868C16.1063 17.9133 16.1365 17.9331 16.1702 17.9445L16.8074 18.1586C16.4637 18.3051 15.9057 18.4135 15.2736 18.0318C15.1376 17.9489 14.9801 17.9078 14.8209 17.9137C14.6617 17.9196 14.5077 17.9722 14.3781 18.0651C13.633 18.6032 13.0311 19.3158 12.6253 20.1404C12.6179 20.0794 12.61 20.0183 12.6034 19.9573C13.0527 18.7635 14.1655 17.7956 14.5293 17.6602L14.5291 17.66ZM7.39147 1.59625C8.29176 1.73892 12.4508 2.73102 11.746 8.74958C10.074 4.76054 7.81878 2.04913 7.78877 2.01345C7.77158 1.9924 7.75037 1.97497 7.72639 1.96218C7.7024 1.9494 7.67611 1.94151 7.64904 1.93898C7.62197 1.93644 7.59468 1.93932 7.56873 1.94743C7.54279 1.95554 7.51871 1.96873 7.49791 1.98623C7.47711 2.00372 7.45999 2.02518 7.44756 2.04936C7.43513 2.07353 7.42762 2.09993 7.42549 2.12703C7.42335 2.15413 7.42662 2.18139 7.43511 2.20721C7.4436 2.23303 7.45714 2.25691 7.47494 2.27746C7.50542 2.31375 9.87483 5.16434 11.5315 9.30637C11.5005 9.30985 11.4691 9.3053 11.4404 9.29318C10.4218 8.85657 5.44364 6.435 7.39147 1.59625ZM4.49385 8.1889C4.52072 8.1928 7.20416 8.5901 9.37601 9.76308C9.80256 9.99339 10.1903 10.2892 10.5251 10.6398C8.97119 11.491 7.60263 11.754 6.56405 11.3978C5.74791 11.1175 5.1138 10.4567 4.67931 9.43297C4.28789 8.51087 3.79508 8.00542 3.51153 7.77184C5.19515 6.0902 7.34218 6.85131 7.68829 6.99008C7.78816 7.11955 7.89336 7.24752 8.00643 7.3733C8.70937 8.15752 9.54561 8.7394 10.2133 9.12823C10.3681 9.44101 10.4872 9.77023 10.5683 10.1097C10.2658 9.83426 9.93096 9.5967 9.57111 9.40221C7.3333 8.19368 4.66489 7.79911 4.55264 7.78298C4.5258 7.77872 4.49838 7.77983 4.47197 7.78626C4.44556 7.79269 4.42069 7.8043 4.39881 7.82042C4.37693 7.83655 4.35848 7.85686 4.34452 7.88018C4.33055 7.9035 4.32137 7.92936 4.31749 7.95626C4.31361 7.98316 4.31512 8.01056 4.32193 8.03688C4.32873 8.06319 4.3407 8.08789 4.35714 8.10953C4.37357 8.13118 4.39415 8.14934 4.41766 8.16297C4.44118 8.17659 4.46717 8.18541 4.49413 8.1889H4.49385ZM11.0456 10.6081C11.0539 10.5591 11.055 10.5092 11.0488 10.4599C11.0024 10.1128 10.9174 9.77202 10.7954 9.44384C11.0045 9.54898 11.1723 9.62445 11.2789 9.67018C11.4064 9.72527 11.5494 9.73332 11.6823 9.69287C11.9243 10.3275 12.1482 10.9899 12.3434 11.6753C12.2456 11.9888 12.1578 12.3142 12.08 12.6516C11.8948 11.9007 11.541 11.2019 11.0456 10.6081ZM4.99308 25.6084C6.55448 24.6932 8.33736 25.0596 8.67396 25.1409L9.1509 25.6882L7.70681 25.7136C7.66171 25.7144 7.61812 25.73 7.5828 25.758C7.54747 25.7861 7.52239 25.825 7.51142 25.8688C7.50045 25.9125 7.50421 25.9587 7.52212 26.0001C7.54003 26.0415 7.57109 26.0758 7.61049 26.0978L9.05335 26.903L8.63178 27.1696C6.86579 27.4176 5.46066 26.1113 4.99308 25.6084ZM11.3332 26.7569C11.1854 26.6975 11.0233 26.683 10.8673 26.715C10.7113 26.7471 10.5681 26.8244 10.4557 26.9373C9.93239 27.4585 9.36446 27.4855 8.99593 27.4249L9.56407 27.0655C9.59411 27.0464 9.6187 27.02 9.63541 26.9886C9.65213 26.9572 9.66041 26.922 9.65943 26.8865C9.65845 26.851 9.64825 26.8163 9.62983 26.7859C9.61141 26.7555 9.5854 26.7304 9.55436 26.7131L8.47469 26.1105L9.59845 26.0908C9.63751 26.0901 9.67556 26.0783 9.70813 26.0567C9.74069 26.0351 9.76642 26.0047 9.78229 25.969C9.79815 25.9333 9.80349 25.8938 9.79767 25.8552C9.79185 25.8166 9.77513 25.7804 9.74946 25.751L9.17469 25.0914C9.59955 25.2368 10.1553 25.5179 10.5118 26.0474C10.5772 26.1443 10.6627 26.2258 10.7626 26.2865C10.8625 26.3472 10.9743 26.3856 11.0904 26.3989C11.4607 26.4422 12.8869 27.115 13.6041 28.1645C13.6109 28.2099 13.6178 28.2553 13.6246 28.3008C12.7679 27.3365 11.757 26.9278 11.3332 26.7567V26.7569ZM14.325 33.2953C14.3219 33.3256 14.3077 33.3537 14.2852 33.3741C14.2626 33.3946 14.2333 33.406 14.2029 33.4061C14.1857 33.406 14.1687 33.4024 14.1531 33.3954C14.1374 33.3884 14.1234 33.3782 14.1119 33.3654C14.1004 33.3526 14.0918 33.3376 14.0865 33.3212C14.0812 33.3049 14.0794 33.2876 14.0813 33.2706C14.5119 29.2348 13.8825 26.473 12.5705 22.7882C12.0656 21.3706 11.8819 19.8258 11.8709 18.3597C11.8709 18.3574 11.8709 18.3553 11.8709 18.3528C11.8687 17.1185 11.9673 15.886 12.1657 14.6677C12.1895 14.5183 12.2058 14.369 12.2161 14.22C12.2268 14.199 12.2337 14.1764 12.2366 14.153C12.3041 13.5805 12.4088 13.0129 12.5501 12.454C12.6003 12.6591 12.6478 12.8658 12.6927 13.0742C12.2868 14.831 11.5189 19.2074 12.8431 22.9256C13.8007 25.6144 14.3891 27.8065 14.4569 30.3738C14.4566 30.3822 14.4569 30.3906 14.4576 30.3989C14.4785 31.3662 14.4342 32.3338 14.325 33.2951V33.2953ZM14.8576 30.0664C14.7535 27.5781 14.165 25.4157 13.2292 22.7882C13.0154 22.1798 12.8523 21.5547 12.7417 20.9194C13.034 20.0828 13.5331 19.3336 14.1927 18.7417C13.6659 19.9542 13.6762 21.3227 14.2321 22.7467C14.5423 23.5381 14.9768 24.275 15.5193 24.9295L15.5261 24.9233C15.7922 26.2846 16.2878 27.5908 16.9917 28.786C16.326 29.2846 15.6109 29.7136 14.8576 30.0662V30.0664ZM22.9436 31.6367C21.2859 31.3883 20.0364 30.1836 19.398 29.4247C20.8114 30.0162 22.3159 30.3609 23.8458 30.4438C24.1113 30.4583 24.3626 30.4643 24.5978 30.4643C25.8398 30.4643 26.6324 30.2934 26.6715 30.2849C26.7238 30.2724 26.7691 30.2399 26.7977 30.1944C26.8263 30.1488 26.8358 30.0939 26.8243 30.0413C26.8127 29.9888 26.781 29.9429 26.7359 29.9136C26.6909 29.8842 26.6361 29.8737 26.5834 29.8844C26.544 29.8929 22.9877 30.638 19.1848 28.882C21.3685 27.6049 23.236 27.2299 24.7394 27.7683C26.2919 28.3244 26.9945 29.7243 27.1778 30.1531C25.7598 31.3466 24.3358 31.8455 22.9436 31.6367Z" fill="white"/>
<path d="M32.3106 24.7752C32.3512 24.5012 32.4532 24.2401 32.609 24.0112C32.7642 23.7878 32.8447 23.5209 32.8388 23.2489C32.8329 22.9769 32.7409 22.7138 32.5761 22.4974C32.3908 22.2623 32.144 22.1658 31.9295 22.2429L31.9248 22.2445C31.9233 22.245 31.9217 22.2454 31.9202 22.246C31.7791 22.3003 31.5187 22.3221 31.1869 22.3075C31.0258 22.3008 30.8665 22.3432 30.73 22.4289C30.5935 22.5147 30.4861 22.6398 30.4222 22.7878C30.2445 23.2006 30.1961 23.5081 30.2744 23.7275C30.3291 23.8816 30.2539 24.2137 30.1935 24.4805C30.1295 24.7627 30.0742 25.0065 30.1103 25.1914C30.1215 25.2462 30.1442 25.2979 30.177 25.3431C30.2099 25.3883 30.252 25.426 30.3007 25.4535C30.4374 25.5372 30.6412 25.5669 30.8583 25.5669C31.1879 25.5601 31.5154 25.5126 31.8333 25.4254C32.2019 25.3196 32.2572 25.0428 32.3106 24.7752ZM31.7195 25.032C31.2239 25.1751 30.6202 25.1921 30.5111 25.1028C30.497 24.9972 30.5481 24.7715 30.5932 24.5715C30.6729 24.2199 30.7554 23.8563 30.6604 23.5901C30.6457 23.5491 30.6125 23.3823 30.7985 22.9504C30.8299 22.879 30.882 22.8188 30.948 22.7773C31.014 22.7359 31.0909 22.7152 31.1688 22.7179C31.3118 22.7242 31.4422 22.724 31.5598 22.7179C31.4254 22.9435 31.2932 23.2159 31.2889 23.4204C31.2883 23.4473 31.293 23.4741 31.3027 23.4992C31.3125 23.5243 31.3271 23.5473 31.3457 23.5667C31.3644 23.5862 31.3866 23.6018 31.4113 23.6126C31.436 23.6235 31.4625 23.6293 31.4894 23.6299H31.494C31.5476 23.6299 31.5991 23.6089 31.6375 23.5714C31.6758 23.5339 31.6979 23.4829 31.6991 23.4293C31.7027 23.2631 31.9247 22.8871 32.106 22.6317C32.1656 22.6568 32.2168 22.6983 32.2538 22.7513C32.363 22.8995 32.4234 23.0781 32.4265 23.2622C32.4296 23.4462 32.3753 23.6267 32.2711 23.7785C32.0837 24.0534 31.9597 24.3664 31.9081 24.695C31.8547 24.9639 31.835 24.9986 31.7195 25.032Z" fill="white"/>
<path d="M33.7782 26.2529C33.7393 26.1131 33.6591 25.9884 33.5481 25.8951C33.4371 25.8017 33.3005 25.7441 33.1562 25.7297C32.7616 25.6919 32.489 25.7351 32.3228 25.8622C32.2168 25.9434 31.9275 25.9688 31.695 25.9893C31.442 26.0116 31.2238 26.0308 31.0756 26.1123C31.03 26.1378 30.9904 26.1728 30.9595 26.2149C30.9286 26.257 30.9071 26.3052 30.8964 26.3563C30.8038 26.7386 31.1775 27.4081 31.3293 27.6338C31.5239 27.9233 31.7865 27.8936 32.0182 27.8668C32.2511 27.8284 32.4897 27.843 32.7162 27.9095C32.8251 27.9426 32.9383 27.9596 33.0522 27.9599C33.2357 27.959 33.4164 27.9141 33.579 27.8289C33.7416 27.7437 33.8813 27.6208 33.9865 27.4704C34.1402 27.242 34.1525 26.997 34.0186 26.8309C33.9385 26.7318 33.8532 26.5265 33.7782 26.2529ZM33.6459 27.2412C33.5426 27.3837 33.3922 27.485 33.2214 27.5274C33.2011 27.3669 33.1296 27.2172 33.0176 27.1006C32.9799 27.0614 32.9282 27.0387 32.8738 27.0376C32.8194 27.0365 32.7668 27.057 32.7275 27.0947C32.6883 27.1324 32.6656 27.1841 32.6645 27.2385C32.6634 27.2929 32.684 27.3455 32.7217 27.3848C32.7551 27.4195 32.7808 27.4609 32.7969 27.5064C32.6344 27.4601 32.4663 27.4365 32.2974 27.4363C32.1883 27.4375 32.0794 27.4452 31.9713 27.4593C31.7389 27.486 31.7183 27.4783 31.6693 27.405C31.434 27.0553 31.2649 26.5949 31.2917 26.463C31.4353 26.426 31.5824 26.4042 31.7306 26.3979C32.0454 26.3702 32.371 26.3415 32.5717 26.1879C32.6292 26.1439 32.8025 26.1079 33.1165 26.138C33.1782 26.144 33.2366 26.1686 33.2841 26.2085C33.3315 26.2483 33.3659 26.3016 33.3826 26.3613C33.4747 26.6975 33.5811 26.9423 33.6989 27.0883C33.7045 27.0951 33.7053 27.1533 33.6459 27.2412Z" fill="white"/>
<path d="M26.0898 23.7617C25.805 23.694 25.557 23.7675 25.4335 23.9522C25.4291 23.9576 25.425 23.9632 25.4212 23.969C25.4206 23.9699 25.4199 23.9707 25.4192 23.9716C25.3423 24.1015 25.1518 24.2806 24.8827 24.4752C24.7525 24.5702 24.6541 24.7023 24.6003 24.8542C24.5465 25.0061 24.5399 25.1707 24.5813 25.3264C24.6982 25.7604 24.8512 26.0314 25.0489 26.1549C25.1875 26.2416 25.3346 26.5487 25.4528 26.7954C25.5778 27.0565 25.6858 27.2819 25.8292 27.4048C25.8998 27.4649 25.9899 27.4972 26.0826 27.4957C26.1022 27.4957 26.1217 27.4945 26.1411 27.4921C26.5786 27.4388 27.1571 26.7545 27.3254 26.519C27.5484 26.2067 27.4198 25.9554 27.2954 25.7123C27.1573 25.4724 27.0752 25.2043 27.0551 24.9281C27.0381 24.6566 26.9355 24.3975 26.7621 24.188C26.5887 23.9784 26.3533 23.8292 26.0898 23.7617ZM26.9921 26.2806C26.6933 26.6991 26.2325 27.086 26.0898 27.086H26.0884C26.0117 27.012 25.9117 26.8032 25.8231 26.6182C25.6674 26.2931 25.5063 25.9569 25.2666 25.8071C25.2297 25.7841 25.1 25.6737 24.9778 25.2197C24.9577 25.1444 24.9608 25.0647 24.9868 24.9911C25.0128 24.9176 25.0605 24.8536 25.1234 24.8076C25.2395 24.7237 25.3417 24.6428 25.4302 24.565C25.465 24.8254 25.5305 25.1208 25.6539 25.284C25.6867 25.3274 25.7355 25.3559 25.7893 25.3634C25.8432 25.3709 25.8979 25.3566 25.9412 25.3238C25.9846 25.291 26.0132 25.2423 26.0206 25.1884C26.0281 25.1345 26.0138 25.0799 25.981 25.0365C25.8807 24.9039 25.821 24.4717 25.8049 24.1587C25.8672 24.1414 25.9331 24.1422 25.995 24.1608C26.1726 24.2092 26.3308 24.3117 26.4476 24.4541C26.5643 24.5965 26.6338 24.7718 26.6464 24.9555C26.6701 25.2872 26.7672 25.6096 26.9307 25.8992C27.0555 26.1431 27.0618 26.1823 26.9918 26.2803L26.9921 26.2806Z" fill="white"/>
<path d="M29.9111 26.2642C29.787 26.2361 29.5928 26.1281 29.3642 25.9601C29.2469 25.8746 29.1065 25.8266 28.9615 25.8223C28.8165 25.818 28.6735 25.8577 28.5514 25.936C28.2184 26.1514 28.0319 26.3545 27.9803 26.5571C27.9476 26.6865 27.7365 26.886 27.5669 27.0462C27.3824 27.2206 27.2233 27.3712 27.1577 27.5272C27.1378 27.5754 27.1285 27.6274 27.1304 27.6795C27.1322 27.7317 27.1453 27.7829 27.1686 27.8296C27.3334 28.1869 28.042 28.4799 28.3012 28.5627C28.3612 28.5826 28.424 28.5931 28.4873 28.5938C28.7089 28.5938 28.8544 28.4488 28.9859 28.3178C29.1447 28.1431 29.3409 28.0065 29.5598 27.9182C29.7845 27.8301 29.9756 27.6731 30.1056 27.4697C30.2356 27.2662 30.2978 27.0268 30.2832 26.7859C30.2618 26.5113 30.1191 26.3115 29.9111 26.2642ZM29.7188 27.305C29.6032 27.1918 29.4542 27.1188 29.2938 27.0968C29.2399 27.0894 29.1853 27.1037 29.142 27.1366C29.0986 27.1695 29.0701 27.2183 29.0627 27.2721C29.0554 27.326 29.0697 27.3807 29.1025 27.424C29.1354 27.4673 29.1842 27.4958 29.2381 27.5032C29.2859 27.5098 29.3318 27.5266 29.3726 27.5526C29.1164 27.6618 28.886 27.8235 28.6963 28.0273C28.5305 28.1926 28.51 28.1988 28.4258 28.1721C28.0243 28.0439 27.6055 27.7879 27.5449 27.6678C27.6345 27.5497 27.7362 27.4413 27.8485 27.3445C28.0782 27.1273 28.3158 26.9028 28.3778 26.6578C28.3955 26.5878 28.5088 26.452 28.7738 26.2806C28.826 26.2471 28.8871 26.2301 28.9491 26.2319C29.011 26.2337 29.071 26.2542 29.1212 26.2907C29.4023 26.4973 29.6375 26.623 29.8204 26.6644C29.8291 26.6663 29.8659 26.7115 29.8741 26.8176C29.8814 26.9933 29.8264 27.1659 29.7188 27.305Z" fill="white"/>
<path d="M27.23 24.04C27.3643 24.1333 27.496 24.4473 27.602 24.6995C27.714 24.9661 27.8108 25.197 27.9479 25.3266C28.0213 25.3955 28.1188 25.4328 28.2194 25.4306C28.231 25.4306 28.2428 25.4302 28.2551 25.4293C28.6947 25.3976 29.3063 24.7426 29.4856 24.5156C29.7237 24.2149 29.6077 23.9575 29.4954 23.7087C29.3693 23.4622 29.3005 23.1903 29.2941 22.9135C29.2941 22.9084 29.2933 22.9036 29.2932 22.8985C29.2932 22.897 29.2932 22.8955 29.2932 22.894C29.2856 22.6254 29.1942 22.366 29.0318 22.1521C28.8693 21.9381 28.644 21.7804 28.3874 21.7009C28.0957 21.6161 27.8353 21.6839 27.7076 21.8776C27.6244 22.0037 27.4253 22.1729 27.147 22.3541C27.0123 22.4425 26.9075 22.5696 26.8463 22.7187C26.7851 22.8678 26.7703 23.0319 26.8041 23.1895C26.8994 23.6286 27.0387 23.9068 27.23 24.04ZM27.3706 22.6979C27.7046 22.4805 27.9332 22.2805 28.05 22.1032C28.0669 22.0776 28.1472 22.0581 28.2729 22.0946C28.4413 22.1498 28.5893 22.2542 28.6978 22.3943C28.8063 22.5344 28.8703 22.7038 28.8817 22.8807C28.8066 23.0056 28.6854 23.0959 28.5442 23.1321C28.5182 23.1399 28.494 23.1529 28.4731 23.1702C28.4521 23.1875 28.4348 23.2087 28.4222 23.2328C28.4095 23.2568 28.4018 23.2831 28.3994 23.3102C28.397 23.3372 28.4 23.3645 28.4082 23.3904C28.4164 23.4163 28.4297 23.4403 28.4473 23.461C28.4648 23.4817 28.4864 23.4987 28.5106 23.5111C28.5348 23.5234 28.5612 23.5308 28.5883 23.5328C28.6154 23.5349 28.6426 23.5315 28.6684 23.5229C28.7661 23.4925 28.8592 23.4488 28.9451 23.393C28.9884 23.5598 29.0476 23.7221 29.1219 23.8776C29.2346 24.1276 29.239 24.1671 29.1642 24.2616C28.844 24.6661 28.361 25.0334 28.2221 25.0214C28.1492 24.9438 28.0596 24.7304 27.9801 24.5412C27.8406 24.2088 27.6963 23.8651 27.4643 23.7037C27.4286 23.6789 27.3045 23.5622 27.2045 23.1028C27.1881 23.0264 27.1952 22.9469 27.2248 22.8746C27.2544 22.8024 27.3053 22.7407 27.3706 22.6979Z" fill="white"/>
<path d="M43.3984 22.5H41.0234L41.0391 21.2734H43.3984C44.2109 21.2734 44.888 21.1042 45.4297 20.7656C45.9714 20.4219 46.3776 19.9427 46.6484 19.3281C46.9245 18.7083 47.0625 17.9844 47.0625 17.1562V16.4609C47.0625 15.8099 46.9844 15.2318 46.8281 14.7266C46.6719 14.2161 46.4427 13.7865 46.1406 13.4375C45.8385 13.0833 45.4688 12.8151 45.0312 12.6328C44.599 12.4505 44.1016 12.3594 43.5391 12.3594H40.9766V11.125H43.5391C44.2839 11.125 44.9635 11.25 45.5781 11.5C46.1927 11.7448 46.7214 12.1016 47.1641 12.5703C47.612 13.0339 47.9557 13.5964 48.1953 14.2578C48.4349 14.9141 48.5547 15.6536 48.5547 16.4766V17.1562C48.5547 17.9792 48.4349 18.7214 48.1953 19.3828C47.9557 20.0391 47.6094 20.599 47.1562 21.0625C46.7083 21.526 46.1667 21.8828 45.5312 22.1328C44.901 22.3776 44.1901 22.5 43.3984 22.5ZM41.8281 11.125V22.5H40.3203V11.125H41.8281ZM55.7359 21.0547V16.7031C55.7359 16.3698 55.6682 16.0807 55.5328 15.8359C55.4026 15.5859 55.2047 15.3932 54.9391 15.2578C54.6734 15.1224 54.3453 15.0547 53.9547 15.0547C53.5901 15.0547 53.2698 15.1172 52.9937 15.2422C52.7229 15.3672 52.5094 15.5312 52.3531 15.7344C52.2021 15.9375 52.1266 16.1562 52.1266 16.3906H50.6812C50.6812 16.0885 50.7594 15.7891 50.9156 15.4922C51.0719 15.1953 51.2958 14.9271 51.5875 14.6875C51.8844 14.4427 52.2385 14.25 52.65 14.1094C53.0667 13.9635 53.5302 13.8906 54.0406 13.8906C54.6552 13.8906 55.1969 13.9948 55.6656 14.2031C56.1396 14.4115 56.5094 14.7266 56.775 15.1484C57.0458 15.5651 57.1812 16.0885 57.1812 16.7188V20.6562C57.1812 20.9375 57.2047 21.237 57.2516 21.5547C57.3036 21.8724 57.3792 22.1458 57.4781 22.375V22.5H55.9703C55.8974 22.3333 55.8401 22.112 55.7984 21.8359C55.7568 21.5547 55.7359 21.2943 55.7359 21.0547ZM55.9859 17.375L56.0016 18.3906H54.5406C54.1292 18.3906 53.762 18.4245 53.4391 18.4922C53.1161 18.5547 52.8453 18.651 52.6266 18.7812C52.4078 18.9115 52.2411 19.0755 52.1266 19.2734C52.012 19.4661 51.9547 19.6927 51.9547 19.9531C51.9547 20.2188 52.0146 20.4609 52.1344 20.6797C52.2542 20.8984 52.4339 21.0729 52.6734 21.2031C52.9182 21.3281 53.2177 21.3906 53.5719 21.3906C54.0146 21.3906 54.4052 21.2969 54.7437 21.1094C55.0823 20.9219 55.3505 20.6927 55.5484 20.4219C55.7516 20.151 55.8609 19.888 55.8766 19.6328L56.4937 20.3281C56.4573 20.5469 56.3583 20.7891 56.1969 21.0547C56.0354 21.3203 55.8193 21.5755 55.5484 21.8203C55.2828 22.0599 54.9651 22.2604 54.5953 22.4219C54.2307 22.5781 53.8193 22.6562 53.3609 22.6562C52.788 22.6562 52.2854 22.5443 51.8531 22.3203C51.426 22.0964 51.0927 21.7969 50.8531 21.4219C50.6187 21.0417 50.5016 20.6172 50.5016 20.1484C50.5016 19.6953 50.5901 19.2969 50.7672 18.9531C50.9443 18.6042 51.1995 18.3151 51.5328 18.0859C51.8661 17.8516 52.2672 17.6745 52.7359 17.5547C53.2047 17.4349 53.7281 17.375 54.3062 17.375H55.9859ZM63.1437 14.0469V15.1562H58.5734V14.0469H63.1437ZM60.1203 11.9922H61.5656V20.4062C61.5656 20.6927 61.6099 20.9089 61.6984 21.0547C61.787 21.2005 61.9016 21.2969 62.0422 21.3438C62.1828 21.3906 62.3339 21.4141 62.4953 21.4141C62.6151 21.4141 62.7401 21.4036 62.8703 21.3828C63.0057 21.3568 63.1073 21.3359 63.175 21.3203L63.1828 22.5C63.0682 22.5365 62.9172 22.5703 62.7297 22.6016C62.5474 22.638 62.326 22.6562 62.0656 22.6562C61.7115 22.6562 61.3859 22.5859 61.0891 22.4453C60.7922 22.3047 60.5552 22.0703 60.3781 21.7422C60.2062 21.4089 60.1203 20.9609 60.1203 20.3984V11.9922ZM69.9734 21.0547V16.7031C69.9734 16.3698 69.9057 16.0807 69.7703 15.8359C69.6401 15.5859 69.4422 15.3932 69.1766 15.2578C68.9109 15.1224 68.5828 15.0547 68.1922 15.0547C67.8276 15.0547 67.5073 15.1172 67.2313 15.2422C66.9604 15.3672 66.7469 15.5312 66.5906 15.7344C66.4396 15.9375 66.3641 16.1562 66.3641 16.3906H64.9188C64.9188 16.0885 64.9969 15.7891 65.1531 15.4922C65.3094 15.1953 65.5333 14.9271 65.825 14.6875C66.1219 14.4427 66.476 14.25 66.8875 14.1094C67.3042 13.9635 67.7677 13.8906 68.2781 13.8906C68.8927 13.8906 69.4344 13.9948 69.9031 14.2031C70.3771 14.4115 70.7469 14.7266 71.0125 15.1484C71.2833 15.5651 71.4188 16.0885 71.4188 16.7188V20.6562C71.4188 20.9375 71.4422 21.237 71.4891 21.5547C71.5411 21.8724 71.6167 22.1458 71.7156 22.375V22.5H70.2078C70.1349 22.3333 70.0776 22.112 70.0359 21.8359C69.9943 21.5547 69.9734 21.2943 69.9734 21.0547ZM70.2234 17.375L70.2391 18.3906H68.7781C68.3667 18.3906 67.9995 18.4245 67.6766 18.4922C67.3536 18.5547 67.0828 18.651 66.8641 18.7812C66.6453 18.9115 66.4786 19.0755 66.3641 19.2734C66.2495 19.4661 66.1922 19.6927 66.1922 19.9531C66.1922 20.2188 66.2521 20.4609 66.3719 20.6797C66.4917 20.8984 66.6714 21.0729 66.9109 21.2031C67.1557 21.3281 67.4552 21.3906 67.8094 21.3906C68.2521 21.3906 68.6427 21.2969 68.9813 21.1094C69.3198 20.9219 69.588 20.6927 69.7859 20.4219C69.9891 20.151 70.0984 19.888 70.1141 19.6328L70.7313 20.3281C70.6948 20.5469 70.5958 20.7891 70.4344 21.0547C70.2729 21.3203 70.0568 21.5755 69.7859 21.8203C69.5203 22.0599 69.2026 22.2604 68.8328 22.4219C68.4682 22.5781 68.0568 22.6562 67.5984 22.6562C67.0255 22.6562 66.5229 22.5443 66.0906 22.3203C65.6635 22.0964 65.3302 21.7969 65.0906 21.4219C64.8563 21.0417 64.7391 20.6172 64.7391 20.1484C64.7391 19.6953 64.8276 19.2969 65.0047 18.9531C65.1818 18.6042 65.437 18.3151 65.7703 18.0859C66.1036 17.8516 66.5047 17.6745 66.9734 17.5547C67.4422 17.4349 67.9656 17.375 68.5438 17.375H70.2234ZM80.1234 19.625C80.1234 19.3594 80.0818 19.125 79.9984 18.9219C79.9203 18.7135 79.7797 18.526 79.5766 18.3594C79.3786 18.1927 79.1026 18.0339 78.7484 17.8828C78.3995 17.7318 77.9568 17.5781 77.4203 17.4219C76.8578 17.2552 76.35 17.0703 75.8969 16.8672C75.4437 16.6589 75.0557 16.4219 74.7328 16.1562C74.4099 15.8906 74.1625 15.5859 73.9906 15.2422C73.8187 14.8984 73.7328 14.5052 73.7328 14.0625C73.7328 13.6198 73.824 13.2109 74.0062 12.8359C74.1885 12.4609 74.449 12.1354 74.7875 11.8594C75.1312 11.5781 75.5401 11.3594 76.0141 11.2031C76.488 11.0469 77.0167 10.9688 77.6 10.9688C78.4542 10.9688 79.1781 11.1328 79.7719 11.4609C80.3708 11.7839 80.8266 12.2083 81.1391 12.7344C81.4516 13.2552 81.6078 13.8125 81.6078 14.4062H80.1078C80.1078 13.9792 80.0167 13.6016 79.8344 13.2734C79.6521 12.9401 79.376 12.6797 79.0062 12.4922C78.6365 12.2995 78.1677 12.2031 77.6 12.2031C77.0635 12.2031 76.6208 12.2839 76.2719 12.4453C75.9229 12.6068 75.6625 12.8255 75.4906 13.1016C75.324 13.3776 75.2406 13.6927 75.2406 14.0469C75.2406 14.2865 75.2901 14.5052 75.3891 14.7031C75.4932 14.8958 75.6521 15.0755 75.8656 15.2422C76.0844 15.4089 76.3604 15.5625 76.6937 15.7031C77.0323 15.8438 77.4359 15.9792 77.9047 16.1094C78.5505 16.2917 79.1078 16.4948 79.5766 16.7188C80.0453 16.9427 80.4307 17.1953 80.7328 17.4766C81.0401 17.7526 81.2667 18.0677 81.4125 18.4219C81.5635 18.7708 81.6391 19.1667 81.6391 19.6094C81.6391 20.0729 81.5453 20.4922 81.3578 20.8672C81.1703 21.2422 80.9021 21.5625 80.5531 21.8281C80.2042 22.0938 79.7849 22.2995 79.2953 22.4453C78.8109 22.5859 78.2693 22.6562 77.6703 22.6562C77.1443 22.6562 76.626 22.5833 76.1156 22.4375C75.6104 22.2917 75.1495 22.0729 74.7328 21.7812C74.3214 21.4896 73.9906 21.1302 73.7406 20.7031C73.4958 20.2708 73.3734 19.7708 73.3734 19.2031H74.8734C74.8734 19.5938 74.949 19.9297 75.1 20.2109C75.251 20.487 75.4568 20.7161 75.7172 20.8984C75.9828 21.0807 76.2823 21.2161 76.6156 21.3047C76.9542 21.388 77.3057 21.4297 77.6703 21.4297C78.1964 21.4297 78.6417 21.3568 79.0062 21.2109C79.3708 21.0651 79.6469 20.8568 79.8344 20.5859C80.0271 20.3151 80.1234 19.9948 80.1234 19.625ZM88.4766 21.0547V16.7031C88.4766 16.3698 88.4089 16.0807 88.2734 15.8359C88.1432 15.5859 87.9453 15.3932 87.6797 15.2578C87.4141 15.1224 87.0859 15.0547 86.6953 15.0547C86.3307 15.0547 86.0104 15.1172 85.7344 15.2422C85.4635 15.3672 85.25 15.5312 85.0938 15.7344C84.9427 15.9375 84.8672 16.1562 84.8672 16.3906H83.4219C83.4219 16.0885 83.5 15.7891 83.6562 15.4922C83.8125 15.1953 84.0365 14.9271 84.3281 14.6875C84.625 14.4427 84.9792 14.25 85.3906 14.1094C85.8073 13.9635 86.2708 13.8906 86.7812 13.8906C87.3958 13.8906 87.9375 13.9948 88.4062 14.2031C88.8802 14.4115 89.25 14.7266 89.5156 15.1484C89.7865 15.5651 89.9219 16.0885 89.9219 16.7188V20.6562C89.9219 20.9375 89.9453 21.237 89.9922 21.5547C90.0443 21.8724 90.1198 22.1458 90.2188 22.375V22.5H88.7109C88.638 22.3333 88.5807 22.112 88.5391 21.8359C88.4974 21.5547 88.4766 21.2943 88.4766 21.0547ZM88.7266 17.375L88.7422 18.3906H87.2812C86.8698 18.3906 86.5026 18.4245 86.1797 18.4922C85.8568 18.5547 85.5859 18.651 85.3672 18.7812C85.1484 18.9115 84.9818 19.0755 84.8672 19.2734C84.7526 19.4661 84.6953 19.6927 84.6953 19.9531C84.6953 20.2188 84.7552 20.4609 84.875 20.6797C84.9948 20.8984 85.1745 21.0729 85.4141 21.2031C85.6589 21.3281 85.9583 21.3906 86.3125 21.3906C86.7552 21.3906 87.1458 21.2969 87.4844 21.1094C87.8229 20.9219 88.0911 20.6927 88.2891 20.4219C88.4922 20.151 88.6016 19.888 88.6172 19.6328L89.2344 20.3281C89.1979 20.5469 89.099 20.7891 88.9375 21.0547C88.776 21.3203 88.5599 21.5755 88.2891 21.8203C88.0234 22.0599 87.7057 22.2604 87.3359 22.4219C86.9714 22.5781 86.5599 22.6562 86.1016 22.6562C85.5286 22.6562 85.026 22.5443 84.5938 22.3203C84.1667 22.0964 83.8333 21.7969 83.5938 21.4219C83.3594 21.0417 83.2422 20.6172 83.2422 20.1484C83.2422 19.6953 83.3307 19.2969 83.5078 18.9531C83.6849 18.6042 83.9401 18.3151 84.2734 18.0859C84.6068 17.8516 85.0078 17.6745 85.4766 17.5547C85.9453 17.4349 86.4688 17.375 87.0469 17.375H88.7266ZM97.8219 14.0469H99.1344V22.3203C99.1344 23.0651 98.9833 23.7005 98.6813 24.2266C98.3792 24.7526 97.9573 25.151 97.4156 25.4219C96.8792 25.6979 96.2594 25.8359 95.5563 25.8359C95.2646 25.8359 94.9208 25.7891 94.525 25.6953C94.1344 25.6068 93.749 25.4531 93.3688 25.2344C92.9938 25.0208 92.6786 24.7318 92.4234 24.3672L93.1813 23.5078C93.5354 23.9349 93.9052 24.2318 94.2906 24.3984C94.6813 24.5651 95.0667 24.6484 95.4469 24.6484C95.9052 24.6484 96.301 24.5625 96.6344 24.3906C96.9677 24.2188 97.2255 23.9635 97.4078 23.625C97.5953 23.2917 97.6891 22.8802 97.6891 22.3906V15.9062L97.8219 14.0469ZM92.0016 18.3672V18.2031C92.0016 17.5573 92.0771 16.9714 92.2281 16.4453C92.3844 15.9141 92.6057 15.4583 92.8922 15.0781C93.1839 14.6979 93.5354 14.4062 93.9469 14.2031C94.3583 13.9948 94.8219 13.8906 95.3375 13.8906C95.8688 13.8906 96.3323 13.9844 96.7281 14.1719C97.1292 14.3542 97.4677 14.6224 97.7438 14.9766C98.025 15.3255 98.2464 15.7474 98.4078 16.2422C98.5693 16.737 98.6813 17.2969 98.7438 17.9219V18.6406C98.6865 19.2604 98.5745 19.8177 98.4078 20.3125C98.2464 20.8073 98.025 21.2292 97.7438 21.5781C97.4677 21.9271 97.1292 22.1953 96.7281 22.3828C96.3271 22.5651 95.8583 22.6562 95.3219 22.6562C94.8167 22.6562 94.3583 22.5495 93.9469 22.3359C93.5406 22.1224 93.1917 21.8229 92.9 21.4375C92.6083 21.0521 92.3844 20.599 92.2281 20.0781C92.0771 19.5521 92.0016 18.9818 92.0016 18.3672ZM93.4469 18.2031V18.3672C93.4469 18.7891 93.4885 19.1849 93.5719 19.5547C93.6604 19.9245 93.7932 20.25 93.9703 20.5312C94.1526 20.8125 94.3844 21.0339 94.6656 21.1953C94.9469 21.3516 95.2828 21.4297 95.6734 21.4297C96.1526 21.4297 96.5484 21.3281 96.8609 21.125C97.1734 20.9219 97.4208 20.6536 97.6031 20.3203C97.7906 19.987 97.9365 19.625 98.0406 19.2344V17.3516C97.9833 17.0651 97.8948 16.7891 97.775 16.5234C97.6604 16.2526 97.5094 16.013 97.3219 15.8047C97.1396 15.5911 96.913 15.4219 96.6422 15.2969C96.3714 15.1719 96.0536 15.1094 95.6891 15.1094C95.2932 15.1094 94.9521 15.1927 94.6656 15.3594C94.3844 15.5208 94.1526 15.7448 93.9703 16.0312C93.7932 16.3125 93.6604 16.6406 93.5719 17.0156C93.4885 17.3854 93.4469 17.7812 93.4469 18.2031ZM104.987 22.6562C104.399 22.6562 103.865 22.5573 103.386 22.3594C102.912 22.1562 102.503 21.8724 102.159 21.5078C101.821 21.1432 101.56 20.7109 101.378 20.2109C101.196 19.7109 101.105 19.1641 101.105 18.5703V18.2422C101.105 17.5547 101.206 16.9427 101.409 16.4062C101.612 15.8646 101.889 15.4062 102.237 15.0312C102.586 14.6562 102.982 14.3724 103.425 14.1797C103.868 13.987 104.326 13.8906 104.8 13.8906C105.404 13.8906 105.925 13.9948 106.362 14.2031C106.805 14.4115 107.167 14.7031 107.448 15.0781C107.73 15.4479 107.938 15.8854 108.073 16.3906C108.209 16.8906 108.277 17.4375 108.277 18.0312V18.6797H101.964V17.5H106.831V17.3906C106.81 17.0156 106.732 16.651 106.597 16.2969C106.467 15.9427 106.258 15.651 105.972 15.4219C105.685 15.1927 105.295 15.0781 104.8 15.0781C104.472 15.0781 104.17 15.1484 103.894 15.2891C103.618 15.4245 103.381 15.6276 103.183 15.8984C102.985 16.1693 102.831 16.5 102.722 16.8906C102.612 17.2812 102.558 17.7318 102.558 18.2422V18.5703C102.558 18.9714 102.612 19.349 102.722 19.7031C102.836 20.0521 103.001 20.3594 103.214 20.625C103.433 20.8906 103.696 21.099 104.003 21.25C104.316 21.401 104.67 21.4766 105.066 21.4766C105.576 21.4766 106.008 21.3724 106.362 21.1641C106.717 20.9557 107.027 20.6771 107.292 20.3281L108.167 21.0234C107.985 21.2995 107.753 21.5625 107.472 21.8125C107.191 22.0625 106.844 22.2656 106.433 22.4219C106.027 22.5781 105.545 22.6562 104.987 22.6562Z" fill="white"/>
</svg>
