<svg width="36" height="35" viewBox="0 0 36 35" fill="none" xmlns="http://www.w3.org/2000/svg">
<path d="M25.3831 27.3848C23.7046 26.7809 21.6394 27.2132 19.2438 28.6682C19.0488 28.5684 18.8537 28.4616 18.6583 28.3477C18.799 28.2178 18.9346 28.0864 19.0652 27.9534C19.5077 27.8372 22.1156 27.0709 23.2526 24.8596C23.9703 23.4632 23.9403 21.7928 23.1627 19.895C23.1472 19.8573 23.121 19.8251 23.0872 19.8024C23.0534 19.7798 23.0136 19.7677 22.9729 19.7677C22.8854 19.7677 20.8144 19.7907 19.4788 21.4737C18.3695 22.8715 18.1192 24.9678 18.7332 27.7047C18.5629 27.8763 18.3842 28.0451 18.197 28.2112C18.1838 28.2203 18.1717 28.231 18.161 28.2429C18.0499 28.3403 17.9359 28.4365 17.8187 28.5315C17.1518 27.3874 16.6823 26.1392 16.4296 24.8393C18.3334 23.1115 20.2351 20.5399 18.9685 17.822C19.3676 17.6121 19.734 17.3452 20.0562 17.0296C20.4966 16.5997 20.8703 16.1064 21.1649 15.566C21.1887 15.5216 21.2024 15.4724 21.2051 15.4221C21.2077 15.3717 21.1993 15.3214 21.1803 15.2747C21.1613 15.228 21.1322 15.186 21.0952 15.1518C21.0581 15.1176 21.014 15.092 20.966 15.0767C19.4091 14.5777 17.9391 15.0518 17.2353 15.3577C17.2121 15.3149 17.1743 15.282 17.1288 15.2649C17.0832 15.2479 17.0331 15.2478 16.9875 15.2648C16.9305 15.2853 15.5861 15.7815 15.1232 17.0395C15.1032 17.0936 15.0716 17.1427 15.0308 17.1835C14.99 17.2243 14.9408 17.2558 14.8866 17.2758C14.4875 17.4242 13.6095 18.1644 13.0382 19.1478C12.8955 16.6427 13.3265 14.3148 13.5942 13.1584C13.9415 12.6272 14.4897 12.2443 15.1379 11.9712C15.384 11.9683 16.0374 12.1385 16.9429 12.8222C17.3334 13.124 17.8137 13.2862 18.3071 13.2828C19.4262 13.2828 20.5441 12.524 21.3013 12.0101C21.5907 11.8137 21.9188 11.5909 22.0268 11.5795C22.0636 11.5755 22.0987 11.5615 22.1283 11.5392C22.1578 11.5168 22.1808 11.4869 22.1947 11.4525C22.2086 11.4181 22.2129 11.3807 22.2072 11.344C22.2015 11.3074 22.186 11.273 22.1623 11.2445C21.2059 10.0941 20.1353 9.50181 18.9805 9.48397C18.1446 9.4703 17.2807 9.75864 16.4142 10.3385C15.8873 10.6965 15.4055 11.1169 14.9794 11.5905C14.3596 11.8519 13.8687 12.188 13.5066 12.5988C13.4344 12.2898 13.3562 11.9847 13.2721 11.6835C13.4465 11.142 13.6586 10.6134 13.9067 10.1015C16.6884 9.88189 18.6084 9.02664 19.6135 7.55746C20.8344 5.77328 20.2348 3.76578 20.2087 3.68149C20.1966 3.64263 20.1733 3.60823 20.1416 3.58267C20.11 3.55711 20.0715 3.54153 20.0309 3.53793C17.993 3.35336 16.3928 3.81643 15.274 4.91305C13.4684 6.68267 13.5393 9.47262 13.5597 9.87594C13.3849 10.2324 13.2213 10.6098 13.0724 11.0084C12.9033 10.466 12.7178 9.93931 12.5209 9.43078C12.5614 9.36354 12.5881 9.28897 12.5997 9.21135C13.0231 6.3434 12.4828 4.15508 10.9938 2.70716C9.80649 1.55257 8.35584 1.25323 7.93946 1.18897C7.85244 1.17518 7.76332 1.19134 7.68668 1.2348C7.61005 1.27827 7.55044 1.34647 7.51761 1.42823C6.78794 3.22929 6.89465 4.94456 7.81525 6.44936C6.90915 6.22685 5.12032 6.0498 3.68245 7.5213C3.64677 7.55773 3.61916 7.60126 3.6014 7.64905C3.58364 7.69685 3.57612 7.74784 3.57935 7.79873C3.58257 7.84962 3.59646 7.89926 3.62011 7.94443C3.64376 7.9896 3.67664 8.02929 3.71663 8.06093C3.96088 8.25377 4.42661 8.70925 4.80176 9.59321C5.2837 10.7287 6.00003 11.4663 6.93102 11.7857C7.29535 11.9085 7.67758 11.9697 8.06203 11.9668C9.01038 11.9668 10.0931 11.6302 11.296 10.9598C11.2977 10.9589 11.299 10.9577 11.3007 10.9568C11.7051 11.4646 11.9992 12.0512 12.1645 12.679C12.3297 13.3068 12.3624 13.9621 12.2604 14.6033C12.0828 15.7009 11.9833 16.8097 11.9626 17.9214C11.8168 17.8002 11.6705 17.684 11.5238 17.5728C11.5156 17.5655 11.5069 17.5588 11.4976 17.5529C11.1302 17.2755 10.7477 17.0187 10.3519 16.7837C10.1399 16.422 8.6733 14.0611 6.2006 13.5686C4.66381 13.2628 3.07118 13.7503 1.46658 15.0179C1.43466 15.0431 1.41097 15.0772 1.39851 15.116C1.38606 15.1547 1.38541 15.1963 1.39665 15.2354C1.42105 15.3206 2.01872 17.3301 4.0183 18.1567C4.59082 18.389 5.20371 18.5056 5.82155 18.4996C6.12254 18.4984 6.42304 18.475 6.72061 18.4297C6.23217 18.6481 5.78115 18.9421 5.38412 19.3008C4.22611 20.3574 3.67301 21.9266 3.74014 23.9649C3.74149 24.0057 3.75497 24.0451 3.77888 24.0782C3.80278 24.1113 3.83602 24.1365 3.87433 24.1506C4.3848 24.3187 4.91921 24.4027 5.45665 24.3993C6.28508 24.4076 7.09972 24.1871 7.81087 23.7621C9.33775 22.8365 10.3022 20.9677 10.6792 18.2076C10.8958 18.1183 11.1191 18.034 11.3491 17.9547C11.5547 18.1133 11.759 18.2817 11.962 18.46C11.9808 19.9374 12.1733 21.4917 12.6839 22.9255C13.2517 24.5195 13.6896 25.9375 13.9664 27.362C13.1464 26.5401 12.039 26.0381 11.638 25.9914C11.5806 25.9849 11.5254 25.966 11.476 25.9361C11.4266 25.9062 11.3844 25.8659 11.352 25.8181C10.6034 24.7061 9.1795 24.5436 9.11927 24.5372C9.07432 24.5317 9.02882 24.5416 8.99021 24.5653C8.9516 24.5889 8.92218 24.625 8.90674 24.6676C8.16846 24.5446 6.62019 24.4352 5.21014 25.2999C5.16707 25.3261 5.1303 25.3615 5.10245 25.4036C5.07459 25.4456 5.05634 25.4932 5.04899 25.5431C5.04163 25.593 5.04536 25.6439 5.05989 25.6922C5.07443 25.7405 5.09943 25.7849 5.1331 25.8225C5.53369 26.2683 6.89178 27.6118 8.68881 27.6116C8.73872 27.6116 8.7891 27.6103 8.83975 27.6082C8.8592 27.6365 8.88549 27.6594 8.91618 27.6749C8.92875 27.6811 10.1834 28.2853 11.2451 27.2277C11.3007 27.1716 11.3715 27.1331 11.4487 27.117C11.526 27.1009 11.6063 27.1078 11.6796 27.137C12.146 27.3253 13.3731 27.8215 14.2194 29.0948C14.3462 30.47 14.3309 31.8547 14.1734 33.2268C14.1584 33.3673 14.1999 33.508 14.2887 33.618C14.3774 33.7279 14.5062 33.7981 14.6467 33.8131C14.7873 33.828 14.928 33.7866 15.0379 33.6978C15.1478 33.6091 15.218 33.4803 15.233 33.3397C15.3394 32.4008 15.3858 31.456 15.3717 30.5112C16.444 30.0288 17.4424 29.3966 18.337 28.6335C18.5929 28.7866 18.8485 28.9277 19.1038 29.0566C19.3354 29.4107 20.9009 31.6691 23.3803 32.0421C23.6072 32.0764 23.8364 32.0936 24.066 32.0936C25.3953 32.0936 26.7347 31.5155 28.0571 30.3691C28.0879 30.3424 28.11 30.3071 28.1207 30.2678C28.1313 30.2284 28.13 30.1868 28.1169 30.1482C28.0885 30.0655 27.4046 28.1116 25.3831 27.3848ZM19.7965 21.7326C20.8201 20.4393 22.3721 20.2219 22.8372 20.1851C23.5139 21.9096 23.5318 23.4177 22.889 24.6695C22.1172 26.173 20.5559 26.9723 19.6351 27.3301C21.554 25.0757 22.2165 22.582 22.4399 21.2986C22.4489 21.2452 22.4364 21.1903 22.4051 21.1461C22.3738 21.1019 22.3262 21.0719 22.2728 21.0626C22.2195 21.0533 22.1646 21.0655 22.1202 21.0965C22.0758 21.1276 22.0454 21.1749 22.0358 21.2282C21.8103 22.5236 21.1228 25.0936 19.0748 27.345C18.5644 24.8707 18.8065 22.9834 19.7965 21.7323V21.7326ZM21.2371 11.027C20.1349 10.904 19.0237 10.8822 17.9175 10.9618C17.2229 11.0082 16.5341 11.1188 15.8599 11.2923C16.5608 10.6649 17.6999 9.87416 18.9738 9.89406C19.9308 9.90882 20.8339 10.3788 21.6603 11.2919C21.5087 11.3752 21.3206 11.5013 21.0705 11.6711C20.0279 12.3788 18.4524 13.4484 17.1898 12.4952C16.782 12.1771 16.332 11.9172 15.8527 11.7227C18.161 11.0635 21.1427 11.4288 21.1852 11.4341C21.2387 11.4402 21.2926 11.425 21.335 11.3917C21.3774 11.3584 21.405 11.3098 21.4119 11.2563C21.4187 11.2028 21.4042 11.1488 21.3715 11.1059C21.3388 11.0631 21.2906 11.0348 21.2372 11.0272L21.2371 11.027ZM15.5608 5.20542C16.4407 4.34307 17.6581 3.90824 19.1883 3.90824C19.4025 3.90824 19.6229 3.91678 19.8497 3.93387C19.954 4.39188 20.212 5.95881 19.2717 7.3299C18.3689 8.64575 16.6384 9.43215 14.1256 9.67066C14.7316 8.53984 15.5137 7.51264 16.4425 6.62757C18.0158 5.12982 19.5057 4.50679 19.5206 4.50071C19.5709 4.48005 19.611 4.44025 19.632 4.39006C19.6529 4.33987 19.6531 4.2834 19.6325 4.23308C19.6118 4.18276 19.572 4.14271 19.5218 4.12173C19.4716 4.10076 19.4152 4.10058 19.3648 4.12124C19.3017 4.14715 17.8006 4.77278 16.1725 6.31825C15.3173 7.13058 14.5813 8.05973 13.9863 9.07812C14.0592 8.07966 14.3666 6.37587 15.5608 5.20542ZM4.17956 17.7798C2.64031 17.1459 1.99835 15.6917 1.83497 15.251C3.30073 14.1278 4.74092 13.6969 6.11789 13.9703C7.7553 14.2953 8.94694 15.5527 9.55705 16.3502C8.31554 15.7331 6.98103 15.3243 5.6069 15.1402C3.71423 14.8873 2.39845 15.1324 2.34336 15.1429C2.3169 15.148 2.29171 15.1582 2.26922 15.173C2.24672 15.1878 2.22736 15.2069 2.21224 15.2292C2.19712 15.2515 2.18655 15.2765 2.18111 15.3029C2.17567 15.3293 2.17549 15.3565 2.18056 15.3829C2.18563 15.4094 2.19586 15.4346 2.21067 15.4571C2.22548 15.4796 2.24457 15.4989 2.26686 15.514C2.28915 15.5292 2.3142 15.5397 2.34058 15.5452C2.36696 15.5506 2.39415 15.5508 2.4206 15.5457C2.46346 15.5375 6.04187 14.8902 9.77135 16.9245C7.53634 18.0996 5.65632 18.3879 4.17956 17.7798ZM7.60245 23.4087C6.16793 24.2809 4.60147 23.9358 4.14633 23.8063C4.11318 21.9655 4.62157 20.5528 5.65844 19.6057C6.89575 18.4756 8.62237 18.2576 9.6347 18.2373C8.25511 18.9436 7.01622 19.8961 5.97912 21.0478C4.87354 22.2762 4.38176 23.2909 4.36132 23.3335C4.34968 23.3578 4.34294 23.3842 4.34148 23.4111C4.34002 23.438 4.34387 23.4649 4.35282 23.4903C4.36177 23.5157 4.37563 23.5391 4.39362 23.5592C4.41161 23.5792 4.43338 23.5955 4.45768 23.6072C4.48197 23.6188 4.50832 23.6256 4.53523 23.627C4.56213 23.6285 4.58906 23.6246 4.61447 23.6157C4.63988 23.6067 4.66329 23.5929 4.68334 23.5749C4.7034 23.5569 4.71971 23.5351 4.73135 23.5108C4.74879 23.4745 6.36172 20.1865 10.2372 18.4004C9.85639 20.8924 8.97114 22.5768 7.60245 23.4087ZM10.4638 17.8531C9.85837 17.7989 9.24872 17.8128 8.64636 17.8946C9.17573 17.6835 9.69147 17.4396 10.1906 17.1645C10.4446 17.3167 10.6983 17.4822 10.9517 17.6611C10.7856 17.7223 10.6231 17.7863 10.464 17.8531H10.4638ZM18.8528 20.5863C18.5629 21.8016 17.7207 23.0677 16.3485 24.3551C16.0295 22.124 16.457 20.1539 17.0209 18.6657C17.3508 18.6037 17.662 18.4663 17.93 18.2642C17.9595 18.2391 17.9812 18.2061 17.9927 18.1691C18.198 18.127 18.3994 18.0676 18.5947 17.9914C18.9781 18.8005 19.0694 19.7175 18.853 20.5863H18.8528ZM15.8985 24.0813C15.1823 23.008 13.954 20.6058 15.3736 18.3254C15.4401 18.3291 15.5046 18.3489 15.5617 18.3831C15.8656 18.5731 16.2131 18.6819 16.5711 18.6992C16.0482 20.1422 15.6633 21.9943 15.8987 24.0813H15.8985ZM17.0606 15.8963C17.3659 15.7341 19.0226 14.9242 20.7641 15.4437C19.6673 17.4293 18.1027 17.763 17.5813 17.8183L17.1277 17.6659L18.3377 16.5408C18.3706 16.5101 18.3926 16.4695 18.4001 16.425C18.4076 16.3806 18.4003 16.335 18.3793 16.2951C18.3583 16.2553 18.3248 16.2235 18.2839 16.2046C18.243 16.1857 18.1971 16.1808 18.1531 16.1906L16.7443 16.5091L17.0606 15.8963ZM15.0291 17.66C15.1387 17.6194 15.2382 17.5556 15.3208 17.4729C15.4034 17.3902 15.4672 17.2906 15.5076 17.1809C15.728 16.5819 16.2012 16.1768 16.5791 15.9346L16.1777 16.7119C16.1598 16.7466 16.1522 16.7857 16.1558 16.8246C16.1593 16.8634 16.1739 16.9005 16.1978 16.9313C16.2217 16.9622 16.2538 16.9856 16.2906 16.9988C16.3273 17.012 16.367 17.0145 16.4051 17.0059L17.5014 16.758L16.5959 17.5999C16.5698 17.6241 16.5505 17.6546 16.5399 17.6885C16.5292 17.7224 16.5275 17.7585 16.535 17.7933C16.5425 17.828 16.5589 17.8603 16.5826 17.8868C16.6063 17.9133 16.6365 17.9331 16.6702 17.9445L17.3074 18.1586C16.9637 18.3051 16.4057 18.4135 15.7736 18.0318C15.6376 17.9489 15.4801 17.9078 15.3209 17.9137C15.1617 17.9196 15.0077 17.9722 14.8781 18.0651C14.133 18.6032 13.5311 19.3158 13.1253 20.1404C13.1179 20.0794 13.11 20.0183 13.1034 19.9573C13.5527 18.7635 14.6655 17.7956 15.0293 17.6602L15.0291 17.66ZM7.89147 1.59625C8.79176 1.73892 12.9508 2.73102 12.246 8.74958C10.574 4.76054 8.31878 2.04913 8.28877 2.01345C8.27158 1.9924 8.25037 1.97497 8.22639 1.96218C8.2024 1.9494 8.17611 1.94151 8.14904 1.93898C8.12197 1.93644 8.09468 1.93932 8.06873 1.94743C8.04279 1.95554 8.01871 1.96873 7.99791 1.98623C7.97711 2.00372 7.95999 2.02518 7.94756 2.04936C7.93513 2.07353 7.92762 2.09993 7.92549 2.12703C7.92335 2.15413 7.92662 2.18139 7.93511 2.20721C7.9436 2.23303 7.95714 2.25691 7.97494 2.27746C8.00542 2.31375 10.3748 5.16434 12.0315 9.30637C12.0005 9.30985 11.9691 9.3053 11.9404 9.29318C10.9218 8.85657 5.94364 6.435 7.89147 1.59625ZM4.99385 8.1889C5.02072 8.1928 7.70416 8.5901 9.87601 9.76308C10.3026 9.99339 10.6903 10.2892 11.0251 10.6398C9.47119 11.491 8.10263 11.754 7.06405 11.3978C6.24791 11.1175 5.6138 10.4567 5.17931 9.43297C4.78789 8.51087 4.29508 8.00542 4.01153 7.77184C5.69515 6.0902 7.84218 6.85131 8.18829 6.99008C8.28816 7.11955 8.39336 7.24752 8.50643 7.3733C9.20937 8.15752 10.0456 8.7394 10.7133 9.12823C10.8681 9.44101 10.9872 9.77023 11.0683 10.1097C10.7658 9.83426 10.431 9.5967 10.0711 9.40221C7.8333 8.19368 5.16489 7.79911 5.05264 7.78298C5.0258 7.77872 4.99838 7.77983 4.97197 7.78626C4.94556 7.79269 4.92069 7.8043 4.89881 7.82042C4.87693 7.83655 4.85848 7.85686 4.84452 7.88018C4.83055 7.9035 4.82137 7.92936 4.81749 7.95626C4.81361 7.98316 4.81512 8.01056 4.82193 8.03688C4.82873 8.06319 4.8407 8.08789 4.85714 8.10953C4.87357 8.13118 4.89415 8.14934 4.91766 8.16297C4.94118 8.17659 4.96717 8.18541 4.99413 8.1889H4.99385ZM11.5456 10.6081C11.5539 10.5591 11.555 10.5092 11.5488 10.4599C11.5024 10.1128 11.4174 9.77202 11.2954 9.44384C11.5045 9.54898 11.6723 9.62445 11.7789 9.67018C11.9064 9.72527 12.0494 9.73332 12.1823 9.69287C12.4243 10.3275 12.6482 10.9899 12.8434 11.6753C12.7456 11.9888 12.6578 12.3142 12.58 12.6516C12.3948 11.9007 12.041 11.2019 11.5456 10.6081ZM5.49308 25.6084C7.05448 24.6932 8.83736 25.0596 9.17396 25.1409L9.6509 25.6882L8.20681 25.7136C8.16171 25.7144 8.11812 25.73 8.0828 25.758C8.04747 25.7861 8.02239 25.825 8.01142 25.8688C8.00045 25.9125 8.00421 25.9587 8.02212 26.0001C8.04003 26.0415 8.07109 26.0758 8.11049 26.0978L9.55335 26.903L9.13178 27.1696C7.36579 27.4176 5.96066 26.1113 5.49308 25.6084ZM11.8332 26.7569C11.6854 26.6975 11.5233 26.683 11.3673 26.715C11.2113 26.7471 11.0681 26.8244 10.9557 26.9373C10.4324 27.4585 9.86446 27.4855 9.49593 27.4249L10.0641 27.0655C10.0941 27.0464 10.1187 27.02 10.1354 26.9886C10.1521 26.9572 10.1604 26.922 10.1594 26.8865C10.1584 26.851 10.1483 26.8163 10.1298 26.7859C10.1114 26.7555 10.0854 26.7304 10.0544 26.7131L8.97469 26.1105L10.0985 26.0908C10.1375 26.0901 10.1756 26.0783 10.2081 26.0567C10.2407 26.0351 10.2664 26.0047 10.2823 25.969C10.2982 25.9333 10.3035 25.8938 10.2977 25.8552C10.2919 25.8166 10.2751 25.7804 10.2495 25.751L9.67469 25.0914C10.0995 25.2368 10.6553 25.5179 11.0118 26.0474C11.0772 26.1443 11.1627 26.2258 11.2626 26.2865C11.3625 26.3472 11.4743 26.3856 11.5904 26.3989C11.9607 26.4422 13.3869 27.115 14.1041 28.1645C14.1109 28.2099 14.1178 28.2553 14.1246 28.3008C13.2679 27.3365 12.257 26.9278 11.8332 26.7567V26.7569ZM14.825 33.2953C14.8219 33.3256 14.8077 33.3537 14.7852 33.3741C14.7626 33.3946 14.7333 33.406 14.7029 33.4061C14.6857 33.406 14.6687 33.4024 14.6531 33.3954C14.6374 33.3884 14.6234 33.3782 14.6119 33.3654C14.6004 33.3526 14.5918 33.3376 14.5865 33.3212C14.5812 33.3049 14.5794 33.2876 14.5813 33.2706C15.0119 29.2348 14.3825 26.473 13.0705 22.7882C12.5656 21.3706 12.3819 19.8258 12.3709 18.3597C12.3709 18.3574 12.3709 18.3553 12.3709 18.3528C12.3687 17.1185 12.4673 15.886 12.6657 14.6677C12.6895 14.5183 12.7058 14.369 12.7161 14.22C12.7268 14.199 12.7337 14.1764 12.7366 14.153C12.8041 13.5805 12.9088 13.0129 13.0501 12.454C13.1003 12.6591 13.1478 12.8658 13.1927 13.0742C12.7868 14.831 12.0189 19.2074 13.3431 22.9256C14.3007 25.6144 14.8891 27.8065 14.9569 30.3738C14.9566 30.3822 14.9569 30.3906 14.9576 30.3989C14.9785 31.3662 14.9342 32.3338 14.825 33.2951V33.2953ZM15.3576 30.0664C15.2535 27.5781 14.665 25.4157 13.7292 22.7882C13.5154 22.1798 13.3523 21.5547 13.2417 20.9194C13.534 20.0828 14.0331 19.3336 14.6927 18.7417C14.1659 19.9542 14.1762 21.3227 14.7321 22.7467C15.0423 23.5381 15.4768 24.275 16.0193 24.9295L16.0261 24.9233C16.2922 26.2846 16.7878 27.5908 17.4917 28.786C16.826 29.2846 16.1109 29.7136 15.3576 30.0662V30.0664ZM23.4436 31.6367C21.7859 31.3883 20.5364 30.1836 19.898 29.4247C21.3114 30.0162 22.8159 30.3609 24.3458 30.4438C24.6113 30.4583 24.8626 30.4643 25.0978 30.4643C26.3398 30.4643 27.1324 30.2934 27.1715 30.2849C27.2238 30.2724 27.2691 30.2399 27.2977 30.1944C27.3263 30.1488 27.3358 30.0939 27.3243 30.0413C27.3127 29.9888 27.281 29.9429 27.2359 29.9136C27.1909 29.8842 27.1361 29.8737 27.0834 29.8844C27.044 29.8929 23.4877 30.638 19.6848 28.882C21.8685 27.6049 23.736 27.2299 25.2394 27.7683C26.7919 28.3244 27.4945 29.7243 27.6778 30.1531C26.2598 31.3466 24.8358 31.8455 23.4436 31.6367Z" fill="white"/>
<path d="M32.8103 24.7752C32.8509 24.5012 32.953 24.2401 33.1088 24.0112C33.264 23.7878 33.3444 23.5209 33.3385 23.2489C33.3326 22.9769 33.2407 22.7138 33.0759 22.4974C32.8906 22.2623 32.6438 22.1658 32.4293 22.2429L32.4246 22.2445C32.4231 22.245 32.4215 22.2454 32.42 22.246C32.2789 22.3003 32.0184 22.3221 31.6867 22.3075C31.5256 22.3008 31.3663 22.3432 31.2297 22.4289C31.0932 22.5147 30.9859 22.6398 30.922 22.7878C30.7442 23.2006 30.6958 23.5081 30.7742 23.7275C30.8289 23.8816 30.7537 24.2137 30.6932 24.4805C30.6292 24.7627 30.5739 25.0065 30.6101 25.1914C30.6212 25.2462 30.644 25.2979 30.6768 25.3431C30.7096 25.3883 30.7518 25.426 30.8004 25.4535C30.9371 25.5372 31.141 25.5669 31.358 25.5669C31.6876 25.5601 32.0152 25.5126 32.3331 25.4254C32.7017 25.3196 32.7569 25.0428 32.8103 24.7752ZM32.2193 25.032C31.7237 25.1751 31.12 25.1921 31.0109 25.1028C30.9967 24.9972 31.0479 24.7715 31.0929 24.5715C31.1726 24.2199 31.2551 23.8563 31.1601 23.5901C31.1455 23.5491 31.1123 23.3823 31.2983 22.9504C31.3297 22.879 31.3817 22.8188 31.4477 22.7773C31.5137 22.7359 31.5906 22.7152 31.6685 22.7179C31.8115 22.7242 31.9419 22.724 32.0595 22.7179C31.9252 22.9435 31.7929 23.2159 31.7886 23.4204C31.788 23.4473 31.7927 23.4741 31.8025 23.4992C31.8123 23.5243 31.8269 23.5473 31.8455 23.5667C31.8641 23.5862 31.8864 23.6018 31.9111 23.6126C31.9357 23.6235 31.9623 23.6293 31.9892 23.6299H31.9938C32.0474 23.6299 32.0989 23.6089 32.1372 23.5714C32.1756 23.5339 32.1977 23.4829 32.1988 23.4293C32.2025 23.2631 32.4244 22.8871 32.6057 22.6317C32.6653 22.6568 32.7166 22.6983 32.7536 22.7513C32.8628 22.8995 32.9231 23.0781 32.9262 23.2622C32.9293 23.4462 32.875 23.6267 32.7709 23.7785C32.5835 24.0534 32.4595 24.3664 32.4079 24.695C32.3544 24.9639 32.3347 24.9986 32.2193 25.032Z" fill="white"/>
<path d="M34.2782 26.2529C34.2393 26.1131 34.1591 25.9884 34.0481 25.8951C33.9371 25.8017 33.8005 25.7441 33.6562 25.7297C33.2616 25.6919 32.989 25.7351 32.8228 25.8622C32.7168 25.9434 32.4275 25.9688 32.195 25.9893C31.942 26.0116 31.7238 26.0308 31.5756 26.1123C31.53 26.1378 31.4904 26.1728 31.4595 26.2149C31.4286 26.257 31.4071 26.3052 31.3964 26.3563C31.3038 26.7386 31.6775 27.4081 31.8293 27.6338C32.0239 27.9233 32.2865 27.8936 32.5182 27.8668C32.7511 27.8284 32.9897 27.843 33.2162 27.9095C33.3251 27.9426 33.4383 27.9596 33.5522 27.9599C33.7357 27.959 33.9164 27.9141 34.079 27.8289C34.2416 27.7437 34.3813 27.6208 34.4865 27.4704C34.6402 27.242 34.6525 26.997 34.5186 26.8309C34.4385 26.7318 34.3532 26.5265 34.2782 26.2529ZM34.1459 27.2412C34.0426 27.3837 33.8922 27.485 33.7214 27.5274C33.7011 27.3669 33.6296 27.2172 33.5176 27.1006C33.4799 27.0614 33.4282 27.0387 33.3738 27.0376C33.3194 27.0365 33.2668 27.057 33.2275 27.0947C33.1883 27.1324 33.1656 27.1841 33.1645 27.2385C33.1634 27.2929 33.184 27.3455 33.2217 27.3848C33.2551 27.4195 33.2808 27.4609 33.2969 27.5064C33.1344 27.4601 32.9663 27.4365 32.7974 27.4363C32.6883 27.4375 32.5794 27.4452 32.4713 27.4593C32.2389 27.486 32.2183 27.4783 32.1693 27.405C31.934 27.0553 31.7649 26.5949 31.7917 26.463C31.9353 26.426 32.0824 26.4042 32.2306 26.3979C32.5454 26.3702 32.871 26.3415 33.0717 26.1879C33.1292 26.1439 33.3025 26.1079 33.6165 26.138C33.6782 26.144 33.7366 26.1686 33.7841 26.2085C33.8315 26.2483 33.8659 26.3016 33.8826 26.3613C33.9747 26.6975 34.0811 26.9423 34.1989 27.0883C34.2045 27.0951 34.2053 27.1533 34.1459 27.2412Z" fill="white"/>
<path d="M26.59 23.7617C26.3052 23.694 26.0572 23.7675 25.9338 23.9522C25.9294 23.9576 25.9253 23.9632 25.9215 23.969C25.9209 23.9699 25.9201 23.9707 25.9195 23.9716C25.8426 24.1015 25.6521 24.2806 25.3829 24.4752C25.2528 24.5702 25.1543 24.7023 25.1005 24.8542C25.0467 25.0061 25.0401 25.1707 25.0815 25.3264C25.1984 25.7604 25.3514 26.0314 25.5491 26.1549C25.6877 26.2416 25.8349 26.5487 25.953 26.7954C26.0781 27.0565 26.1861 27.2819 26.3294 27.4048C26.4001 27.4649 26.4901 27.4972 26.5828 27.4957C26.6024 27.4957 26.6219 27.4945 26.6414 27.4921C27.0789 27.4388 27.6574 26.7545 27.8256 26.519C28.0486 26.2067 27.92 25.9554 27.7957 25.7123C27.6576 25.4724 27.5754 25.2043 27.5554 24.9281C27.5384 24.6566 27.4358 24.3975 27.2624 24.188C27.0889 23.9784 26.8535 23.8292 26.59 23.7617ZM27.4924 26.2806C27.1935 26.6991 26.7328 27.086 26.59 27.086H26.5887C26.512 27.012 26.4119 26.8032 26.3234 26.6182C26.1676 26.2931 26.0066 25.9569 25.7668 25.8071C25.73 25.7841 25.6002 25.6737 25.478 25.2197C25.4579 25.1444 25.4611 25.0647 25.4871 24.9911C25.5131 24.9176 25.5607 24.8536 25.6237 24.8076C25.7397 24.7237 25.842 24.6428 25.9304 24.565C25.9653 24.8254 26.0307 25.1208 26.1542 25.284C26.187 25.3274 26.2357 25.3559 26.2896 25.3634C26.3435 25.3709 26.3981 25.3566 26.4415 25.3238C26.4849 25.291 26.5134 25.2423 26.5209 25.1884C26.5283 25.1345 26.5141 25.0799 26.4813 25.0365C26.3809 24.9039 26.3212 24.4717 26.3051 24.1587C26.3674 24.1414 26.4333 24.1422 26.4952 24.1608C26.6729 24.2092 26.8311 24.3117 26.9478 24.4541C27.0645 24.5965 27.134 24.7718 27.1466 24.9555C27.1703 25.2872 27.2674 25.6096 27.431 25.8992C27.5557 26.1431 27.5621 26.1823 27.4921 26.2803L27.4924 26.2806Z" fill="white"/>
<path d="M30.4113 26.2642C30.2873 26.2361 30.093 26.1281 29.8644 25.9601C29.7471 25.8746 29.6068 25.8266 29.4617 25.8223C29.3167 25.818 29.1737 25.8577 29.0516 25.936C28.7186 26.1514 28.5321 26.3545 28.4806 26.5571C28.4478 26.6865 28.2368 26.886 28.0672 27.0462C27.8826 27.2206 27.7235 27.3712 27.658 27.5272C27.6381 27.5754 27.6287 27.6274 27.6306 27.6795C27.6325 27.7317 27.6455 27.7829 27.6689 27.8296C27.8336 28.1869 28.5423 28.4799 28.8014 28.5627C28.8615 28.5826 28.9242 28.5931 28.9875 28.5938C29.2091 28.5938 29.3547 28.4488 29.4862 28.3178C29.645 28.1431 29.8411 28.0065 30.06 27.9182C30.2848 27.8301 30.4759 27.6731 30.6059 27.4697C30.7359 27.2662 30.798 27.0268 30.7834 26.7859C30.762 26.5113 30.6194 26.3115 30.4113 26.2642ZM30.219 27.305C30.1034 27.1918 29.9544 27.1188 29.7941 27.0968C29.7402 27.0894 29.6856 27.1037 29.6422 27.1366C29.5989 27.1695 29.5704 27.2183 29.563 27.2721C29.5556 27.326 29.5699 27.3807 29.6028 27.424C29.6357 27.4673 29.6844 27.4958 29.7383 27.5032C29.7862 27.5098 29.8321 27.5266 29.8728 27.5526C29.6167 27.6618 29.3863 27.8235 29.1966 28.0273C29.0307 28.1926 29.0102 28.1988 28.9261 28.1721C28.5245 28.0439 28.1057 27.7879 28.0452 27.6678C28.1347 27.5497 28.2365 27.4413 28.3488 27.3445C28.5784 27.1273 28.816 26.9028 28.878 26.6578C28.8957 26.5878 29.009 26.452 29.2741 26.2806C29.3262 26.2471 29.3873 26.2301 29.4493 26.2319C29.5113 26.2337 29.5713 26.2542 29.6214 26.2907C29.9025 26.4973 30.1378 26.623 30.3207 26.6644C30.3293 26.6663 30.3661 26.7115 30.3743 26.8176C30.3816 26.9933 30.3266 27.1659 30.219 27.305Z" fill="white"/>
<path d="M27.7298 24.04C27.864 24.1333 27.9958 24.4473 28.1017 24.6995C28.2138 24.9661 28.3106 25.197 28.4476 25.3266C28.521 25.3955 28.6186 25.4328 28.7192 25.4306C28.7308 25.4306 28.7426 25.4302 28.7549 25.4293C29.1944 25.3976 29.806 24.7426 29.9854 24.5156C30.2235 24.2149 30.1074 23.9575 29.9952 23.7087C29.869 23.4622 29.8002 23.1903 29.7939 22.9135C29.7939 22.9084 29.7931 22.9036 29.7929 22.8985C29.7929 22.897 29.7929 22.8955 29.7929 22.894C29.7854 22.6254 29.694 22.366 29.5315 22.1521C29.3691 21.9381 29.1438 21.7804 28.8872 21.7009C28.5955 21.6161 28.3351 21.6839 28.2073 21.8776C28.1242 22.0037 27.9251 22.1729 27.6468 22.3541C27.5121 22.4425 27.4072 22.5696 27.346 22.7187C27.2848 22.8678 27.2701 23.0319 27.3038 23.1895C27.3992 23.6286 27.5384 23.9068 27.7298 24.04ZM27.8703 22.6979C28.2044 22.4805 28.433 22.2805 28.5497 22.1032C28.5667 22.0776 28.6469 22.0581 28.7727 22.0946C28.941 22.1498 29.089 22.2542 29.1975 22.3943C29.306 22.5344 29.3701 22.7038 29.3815 22.8807C29.3064 23.0056 29.1851 23.0959 29.044 23.1321C29.018 23.1399 28.9938 23.1529 28.9729 23.1702C28.9519 23.1875 28.9346 23.2087 28.9219 23.2328C28.9093 23.2568 28.9015 23.2831 28.8991 23.3102C28.8967 23.3372 28.8997 23.3645 28.9079 23.3904C28.9162 23.4163 28.9295 23.4403 28.947 23.461C28.9646 23.4817 28.9861 23.4987 29.0103 23.5111C29.0345 23.5234 29.0609 23.5308 29.088 23.5328C29.1151 23.5349 29.1423 23.5315 29.1681 23.5229C29.2659 23.4925 29.359 23.4488 29.4448 23.393C29.4882 23.5598 29.5474 23.7221 29.6216 23.8776C29.7343 24.1276 29.7387 24.1671 29.664 24.2616C29.3438 24.6661 28.8607 25.0334 28.7219 25.0214C28.6489 24.9438 28.5593 24.7304 28.4799 24.5412C28.3404 24.2088 28.1961 23.8651 27.964 23.7037C27.9284 23.6789 27.8042 23.5622 27.7043 23.1028C27.6879 23.0264 27.6949 22.9469 27.7246 22.8746C27.7542 22.8024 27.805 22.7407 27.8703 22.6979Z" fill="white"/>
</svg>
