<?xml version="1.0" standalone="no"?>
<!DOCTYPE svg PUBLIC "-//W3C//DTD SVG 20010904//EN"
 "http://www.w3.org/TR/2001/REC-SVG-20010904/DTD/svg10.dtd">
<svg version="1.0" xmlns="http://www.w3.org/2000/svg"
 width="1200.000000pt" height="1200.000000pt" viewBox="0 0 1200.000000 1200.000000"
 preserveAspectRatio="xMidYMid meet">
<metadata>
Created by potrace 1.14, written by Peter Selinger 2001-2017
</metadata>
<g transform="translate(0.000000,1200.000000) scale(0.100000,-0.100000)"
fill="#000000" stroke="none">
<path d="M7755 11513 c-410 -53 -755 -251 -947 -542 -127 -194 -172 -350 -171
-596 1 -336 107 -594 332 -808 170 -161 374 -281 756 -444 269 -115 379 -179
429 -252 56 -80 77 -192 57 -304 -32 -183 -127 -270 -327 -298 -168 -23 -366
37 -737 223 -140 70 -171 90 -234 151 -40 39 -75 68 -77 66 -6 -8 -354 -774
-358 -788 -6 -26 303 -196 504 -277 152 -61 348 -118 505 -145 169 -30 497
-34 640 -7 434 82 769 325 948 686 96 194 130 362 122 602 -7 178 -19 250 -66
379 -121 331 -375 545 -905 766 -458 190 -595 318 -596 555 0 161 114 243 340
244 148 0 375 -66 579 -168 39 -20 71 -34 71 -32 0 2 -7 17 -15 32 -16 31 -20
64 -7 64 4 0 64 -16 134 -34 l128 -35 39 67 c76 132 291 512 291 516 0 6 -180
121 -226 144 -196 99 -514 192 -778 227 -99 14 -354 18 -431 8z"/>
<path d="M2928 11473 l-138 -4 0 -1983 0 -1984 598 -7 c619 -8 828 -2 1037 31
875 137 1382 649 1510 1525 37 258 37 663 -1 918 -116 785 -547 1273 -1279
1446 -238 56 -270 58 -955 60 -349 1 -697 0 -772 -2z m1212 -778 c236 -36 393
-108 524 -239 167 -167 261 -404 297 -744 15 -147 6 -514 -15 -642 -68 -400
-234 -635 -522 -739 -128 -46 -233 -62 -476 -68 l-218 -6 0 1226 0 1227 158 0
c87 0 199 -7 252 -15z"/>
<path d="M4664 7125 c-23 -35 -14 -102 35 -246 21 -64 49 -158 61 -210 26
-108 29 -223 16 -605 -10 -264 -2 -360 45 -552 69 -281 195 -527 407 -792 79
-100 353 -377 509 -517 113 -103 158 -169 219 -325 26 -68 58 -145 72 -173 48
-97 133 -217 204 -287 83 -82 92 -80 -127 -21 -298 80 -724 240 -778 290 -16
16 -71 111 -122 213 -51 102 -120 226 -153 275 -145 217 -527 578 -842 796
-455 315 -959 508 -1332 513 -115 1 -129 -1 -155 -20 -25 -19 -28 -27 -27 -74
2 -43 15 -78 77 -203 359 -722 1126 -1393 1799 -1572 203 -54 376 -67 548 -40
172 27 195 23 396 -54 98 -37 204 -77 234 -87 l55 -18 -90 -17 c-49 -9 -146
-33 -215 -52 -215 -61 -281 -71 -445 -71 -293 0 -517 66 -1087 322 -523 235
-843 322 -1190 322 -355 0 -659 -99 -1013 -330 -172 -113 -195 -134 -195 -176
0 -43 38 -75 225 -195 432 -277 717 -384 1048 -396 316 -11 529 42 1124 282
312 126 404 154 539 162 75 5 108 1 200 -20 290 -69 480 -62 815 33 161 46
253 61 376 61 97 0 243 -16 243 -27 0 -1 -39 -21 -86 -43 -96 -45 -174 -99
-308 -210 -110 -91 -177 -133 -265 -163 -63 -22 -79 -23 -391 -24 -352 -1
-448 -11 -636 -67 -410 -124 -745 -389 -1032 -813 -23 -34 -63 -81 -90 -105
-60 -54 -75 -80 -63 -111 19 -50 96 -96 236 -141 119 -38 186 -49 304 -49 312
0 636 138 991 423 145 116 415 387 619 621 173 198 269 293 422 416 194 155
294 203 439 209 52 3 106 1 118 -4 22 -8 17 -12 -50 -46 -42 -20 -103 -62
-140 -97 -37 -33 -75 -60 -87 -60 -33 0 -81 -50 -88 -93 -7 -47 16 -77 61 -77
62 0 113 64 102 126 -6 31 -3 36 56 84 76 61 159 104 234 121 48 11 74 10 202
-10 81 -12 165 -24 187 -28 l39 -5 -59 -22 c-33 -12 -86 -37 -118 -55 -37 -21
-66 -31 -79 -28 -27 7 -77 -14 -102 -42 -26 -29 -27 -89 -1 -107 10 -8 34 -14
53 -14 43 0 102 54 102 94 0 21 11 33 47 56 119 76 271 107 451 94 l123 -9
-81 -53 c-90 -60 -236 -194 -298 -275 l-41 -53 -223 -68 c-466 -143 -752 -268
-1018 -444 -575 -382 -1016 -918 -1195 -1453 -96 -288 -72 -339 149 -325 632
43 1100 319 1545 913 169 227 321 474 563 918 243 446 252 458 394 595 107
103 210 173 312 212 78 31 90 32 377 42 l130 5 -57 -31 c-31 -17 -88 -56 -125
-87 -43 -35 -78 -56 -95 -57 -64 -4 -123 -79 -100 -129 38 -84 163 -29 166 72
1 33 8 42 70 89 134 102 242 144 436 169 297 37 651 95 810 132 16 3 -1 -13
-45 -45 -39 -27 -109 -82 -155 -121 -151 -128 -231 -174 -432 -244 -159 -57
-258 -98 -371 -157 -686 -352 -1161 -972 -1428 -1860 -50 -167 -53 -221 -16
-257 37 -38 94 -34 263 16 585 177 995 492 1323 1016 143 229 308 603 432 979
81 246 104 291 197 382 178 175 422 325 617 378 280 76 560 155 790 222 143
41 341 96 440 121 99 25 188 52 198 60 9 9 17 26 17 38 0 31 -37 75 -64 75
-12 0 -78 -21 -147 -46 -524 -193 -864 -303 -1204 -389 -359 -91 -834 -185
-934 -185 -112 0 -287 72 -382 157 -49 45 -49 45 -43 94 6 46 5 50 -29 84 -82
82 -179 10 -114 -85 12 -18 36 -38 54 -44 17 -6 53 -33 80 -60 60 -61 131
-107 219 -143 l69 -27 -45 -9 c-25 -5 -101 -10 -170 -10 -117 -2 -129 0 -195
28 -162 68 -377 249 -494 415 -68 97 -135 230 -156 311 -26 96 -15 237 39 534
60 329 83 496 97 706 28 429 -51 849 -224 1194 -111 222 -192 298 -260 245
-39 -31 -60 -77 -107 -236 -61 -204 -127 -365 -262 -637 -137 -276 -161 -332
-189 -437 -72 -276 -29 -626 114 -915 99 -201 264 -377 432 -462 22 -12 85
-35 140 -52 148 -45 179 -69 254 -190 135 -221 319 -401 513 -504 l46 -25 -45
-6 c-84 -11 -326 -6 -366 8 -104 37 -255 163 -311 259 -26 43 -27 48 -12 69
35 49 11 135 -43 158 -87 36 -126 -100 -47 -167 18 -15 45 -49 60 -76 38 -66
136 -169 209 -218 l62 -42 -145 6 c-86 4 -167 13 -200 22 -120 36 -257 140
-333 255 -34 51 -36 58 -25 86 15 40 4 80 -32 115 -75 75 -158 -14 -100 -108
11 -18 31 -35 45 -39 17 -4 38 -26 61 -62 47 -73 123 -152 191 -199 33 -23 49
-39 41 -41 -32 -6 -357 48 -409 68 -177 70 -320 212 -426 425 -136 270 -239
779 -263 1295 -5 118 -14 316 -20 440 -12 250 -28 382 -65 539 -98 408 -348
736 -780 1021 -184 121 -267 147 -301 95z m135 -72 c173 -100 363 -246 494
-379 241 -245 370 -517 422 -885 8 -63 20 -213 25 -334 24 -534 31 -656 50
-798 17 -134 60 -388 77 -457 8 -30 -86 52 -310 270 -182 177 -292 306 -402
470 -137 205 -218 382 -268 590 -42 171 -51 287 -42 540 19 499 15 541 -81
827 -30 89 -54 167 -54 172 0 19 42 12 89 -16z m2260 -451 c41 -45 125 -204
182 -345 105 -264 152 -525 152 -852 -1 -277 -16 -406 -118 -980 -43 -244 -48
-331 -20 -436 l6 -25 -114 37 c-63 20 -142 51 -175 69 -145 77 -279 224 -370
405 -116 230 -167 489 -143 718 20 185 48 260 239 642 117 234 174 375 232
575 45 151 73 220 91 220 6 0 23 -13 38 -28z m-4084 -1192 c140 -16 238 -38
396 -90 500 -164 1037 -524 1449 -972 153 -166 204 -242 325 -483 l100 -202
-127 -18 c-150 -21 -283 -17 -438 15 -562 115 -1251 632 -1665 1250 -143 214
-266 456 -252 494 8 19 76 21 212 6z m161 -1594 c246 -52 463 -129 850 -302
120 -53 266 -116 324 -140 96 -38 102 -43 75 -49 -89 -19 -226 -68 -455 -160
-559 -226 -797 -285 -1095 -272 -258 12 -515 97 -812 267 -151 88 -383 241
-383 254 0 19 267 187 408 258 175 88 347 143 537 172 17 2 120 3 230 1 169
-3 219 -7 321 -29z m5504 -926 c-6 -12 -45 -121 -86 -243 -291 -858 -605
-1334 -1094 -1662 -112 -74 -356 -193 -500 -243 -138 -48 -286 -86 -300 -77
-19 12 -10 72 31 211 76 260 196 546 319 760 343 595 801 976 1438 1198 73 25
145 52 160 60 37 21 45 20 32 -4z m-3291 -232 c-180 -207 -463 -489 -599 -598
-263 -210 -518 -342 -749 -386 -101 -20 -279 -19 -376 1 -118 25 -285 93 -285
116 0 5 26 34 58 66 31 32 86 100 121 151 194 282 441 503 706 633 275 134
506 175 920 164 165 -4 235 -2 280 8 33 7 62 12 63 11 2 -1 -60 -76 -139 -166z
m1455 -85 c-152 -281 -323 -587 -390 -699 -547 -916 -1053 -1292 -1806 -1340
-127 -8 -129 -6 -109 89 52 251 234 601 463 889 103 129 310 338 448 450 378
308 671 460 1213 632 111 36 208 65 215 65 9 1 -4 -32 -34 -86z"/>
<path d="M5010 6696 c0 -8 16 -42 36 -76 145 -247 192 -444 229 -955 23 -312
53 -472 124 -657 59 -151 167 -338 196 -338 25 0 17 28 -29 103 -162 269 -218
479 -251 962 -23 330 -47 465 -116 662 -53 150 -142 313 -171 313 -10 0 -18
-7 -18 -14z"/>
<path d="M7039 6098 c-1 -7 -1 -67 1 -133 3 -217 -21 -367 -115 -715 -29 -107
-60 -237 -69 -289 -37 -218 -9 -396 96 -608 38 -77 60 -98 80 -77 4 3 -18 56
-48 117 -69 145 -94 248 -94 394 0 134 19 236 89 491 28 101 60 231 71 290 45
230 49 532 8 540 -10 2 -19 -2 -19 -10z"/>
<path d="M2997 5243 c-18 -18 1 -35 91 -83 124 -66 348 -215 477 -317 112 -88
199 -164 461 -398 287 -257 447 -381 649 -502 156 -94 204 -116 221 -102 7 6
12 15 9 19 -3 5 -54 35 -113 68 -248 139 -425 272 -777 587 -433 387 -624 532
-909 687 -93 50 -98 52 -109 41z"/>
<path d="M3335 3444 c-33 -2 -186 -18 -340 -35 -503 -54 -718 -56 -930 -7
-116 26 -139 27 -143 6 -4 -19 15 -25 173 -60 88 -20 129 -22 340 -22 210 0
276 4 525 34 251 30 314 34 530 34 192 0 265 -4 340 -17 162 -31 180 -32 180
-13 0 22 -33 33 -169 57 -114 19 -378 31 -506 23z"/>
<path d="M8229 2517 c-377 -301 -755 -719 -1063 -1175 -164 -243 -184 -282
-142 -282 7 0 48 55 91 123 298 470 690 923 1073 1241 73 60 132 115 132 122
0 29 -32 19 -91 -29z"/>
<path d="M5000 2635 c-204 -68 -346 -149 -720 -409 -263 -183 -440 -277 -616
-327 -89 -25 -108 -37 -94 -58 7 -13 22 -11 98 12 185 55 354 140 552 277 482
332 594 397 809 467 86 27 111 40 109 52 -5 25 -26 23 -138 -14z"/>
<path d="M6351 2294 c-186 -132 -411 -345 -645 -609 -438 -495 -593 -646 -845
-821 -88 -62 -104 -80 -76 -90 34 -13 288 181 478 365 66 64 226 235 356 381
374 421 498 542 714 703 99 74 124 104 92 113 -5 2 -39 -17 -74 -42z"/>
</g>
</svg>
